<svg xmlns="http://www.w3.org/2000/svg" xmlns:xlink="http://www.w3.org/1999/xlink" width="17" height="17" enable-background="new -.75 -.625 17 17" version="1.1" viewBox="-0.75 -0.625 17 17" xml:space="preserve"><g><defs><circle id="XMLID_6_" cx="7.859" cy="7.859" r="7.484"/></defs><clipPath id="XMLID_9_"><use xlink:href="#XMLID_6_"/></clipPath><polygon fill="#CBD2D8" points=".375 11.68 5.102 15.344 .375 15.344" clip-path="url(#XMLID_9_)"/><polygon fill="#CBD2D8" points=".375 11.547 5.273 15.344 5.105 15.344 .375 11.68" clip-path="url(#XMLID_9_)"/><polygon fill="#C9D0D5" points=".375 11.414 5.445 15.344 5.273 15.344 .375 11.547" clip-path="url(#XMLID_9_)"/><polygon fill="#C6CDD3" points=".375 11.281 5.617 15.344 5.445 15.344 .375 11.414" clip-path="url(#XMLID_9_)"/><polygon fill="#C5CCD2" points=".375 11.148 5.789 15.344 5.617 15.344 .375 11.281" clip-path="url(#XMLID_9_)"/><polygon fill="#C3C9D0" points=".375 11.016 5.961 15.344 5.789 15.344 .375 11.148" clip-path="url(#XMLID_9_)"/><polygon fill="#C1C8CE" points=".375 10.883 6.129 15.344 5.961 15.344 .375 11.016" clip-path="url(#XMLID_9_)"/><polygon fill="#BFC5CC" points=".375 10.75 6.301 15.344 6.129 15.344 .375 10.883" clip-path="url(#XMLID_9_)"/><polygon fill="#BEC4CB" points=".375 10.617 6.473 15.344 6.301 15.344 .375 10.75" clip-path="url(#XMLID_9_)"/><polygon fill="#BBC2C9" points=".375 10.484 6.645 15.344 6.473 15.344 .375 10.617" clip-path="url(#XMLID_9_)"/><polygon fill="#BAC0C8" points=".375 10.352 6.812 15.344 6.645 15.344 .375 10.484" clip-path="url(#XMLID_9_)"/><polygon fill="#B7BEC6" points=".375 10.219 6.984 15.344 6.812 15.344 .375 10.352" clip-path="url(#XMLID_9_)"/><polygon fill="#B6BDC5" points=".375 10.086 7.156 15.344 6.984 15.344 .375 10.219" clip-path="url(#XMLID_9_)"/><polygon fill="#B5BBC3" points=".375 9.957 7.328 15.344 7.156 15.344 .375 10.086" clip-path="url(#XMLID_9_)"/><polygon fill="#B3BAC2" points=".375 9.824 7.5 15.344 7.328 15.344 .375 9.957" clip-path="url(#XMLID_9_)"/><polygon fill="#B1B7C0" points=".375 9.691 7.672 15.344 7.5 15.344 .375 9.824" clip-path="url(#XMLID_9_)"/><polygon fill="#B0B6BF" points=".375 9.559 7.84 15.344 7.672 15.344 .375 9.691" clip-path="url(#XMLID_9_)"/><polygon fill="#AEB5BE" points=".375 9.426 8.012 15.344 7.84 15.344 .375 9.559" clip-path="url(#XMLID_9_)"/><polygon fill="#ADB3BC" points=".375 9.293 8.184 15.344 8.012 15.344 .375 9.426" clip-path="url(#XMLID_9_)"/><polygon fill="#ABB2BC" points=".375 9.16 8.352 15.344 8.184 15.344 .375 9.293" clip-path="url(#XMLID_9_)"/><polygon fill="#AAB0BA" points=".375 9.027 8.523 15.344 8.352 15.344 .375 9.16" clip-path="url(#XMLID_9_)"/><polygon fill="#A8AEB8" points=".375 8.895 8.695 15.344 8.523 15.344 .375 9.027" clip-path="url(#XMLID_9_)"/><polygon fill="#A6ADB7" points=".375 8.762 8.867 15.344 8.695 15.344 .375 8.895" clip-path="url(#XMLID_9_)"/><polygon fill="#A6ACB6" points=".375 8.629 9.039 15.344 8.867 15.344 .375 8.762" clip-path="url(#XMLID_9_)"/><polygon fill="#A3AAB4" points=".375 8.496 9.211 15.344 9.039 15.344 .375 8.629" clip-path="url(#XMLID_9_)"/><polygon fill="#A2A8B3" points=".375 8.363 9.383 15.344 9.211 15.344 .375 8.496" clip-path="url(#XMLID_9_)"/><polygon fill="#A0A7B1" points=".375 8.23 9.551 15.344 9.383 15.344 .375 8.363" clip-path="url(#XMLID_9_)"/><polygon fill="#9FA6B0" points=".375 8.102 9.723 15.344 9.551 15.344 .375 8.23" clip-path="url(#XMLID_9_)"/><polygon fill="#9EA4AF" points=".375 7.969 9.895 15.344 9.723 15.344 .375 8.102" clip-path="url(#XMLID_9_)"/><polygon fill="#9CA3AE" points=".375 7.836 10.062 15.344 9.895 15.344 .375 7.969" clip-path="url(#XMLID_9_)"/><polygon fill="#9BA1AD" points=".375 7.703 10.234 15.344 10.062 15.344 .375 7.836" clip-path="url(#XMLID_9_)"/><polygon fill="#9AA0AB" points=".375 7.57 10.406 15.344 10.234 15.344 .375 7.703" clip-path="url(#XMLID_9_)"/><polygon fill="#989FAA" points=".375 7.438 10.578 15.344 10.406 15.344 .375 7.57" clip-path="url(#XMLID_9_)"/><polygon fill="#979EAA" points=".375 7.305 10.75 15.344 10.578 15.344 .375 7.438" clip-path="url(#XMLID_9_)"/><polygon fill="#969CA8" points=".375 7.172 10.918 15.344 10.75 15.344 .375 7.305" clip-path="url(#XMLID_9_)"/><polygon fill="#949BA7" points=".375 7.039 11.09 15.344 10.918 15.344 .375 7.172" clip-path="url(#XMLID_9_)"/><polygon fill="#9399A5" points=".375 6.906 11.262 15.344 11.09 15.344 .375 7.039" clip-path="url(#XMLID_9_)"/><polygon fill="#9298A4" points=".375 6.773 11.434 15.344 11.262 15.344 .375 6.906" clip-path="url(#XMLID_9_)"/><polygon fill="#9097A3" points=".375 6.641 11.602 15.344 11.434 15.344 .375 6.773" clip-path="url(#XMLID_9_)"/><polygon fill="#8F95A2" points=".375 6.508 11.773 15.344 11.602 15.344 .375 6.641" clip-path="url(#XMLID_9_)"/><polygon fill="#8E95A1" points=".375 6.375 11.945 15.344 11.773 15.344 .375 6.508" clip-path="url(#XMLID_9_)"/><polygon fill="#8D93A0" points=".375 6.242 12.117 15.344 11.945 15.344 .375 6.375" clip-path="url(#XMLID_9_)"/><polygon fill="#8B929F" points=".375 6.113 12.289 15.344 12.117 15.344 .375 6.242" clip-path="url(#XMLID_9_)"/><polygon fill="#8A919E" points=".375 5.98 12.461 15.344 12.289 15.344 .375 6.113" clip-path="url(#XMLID_9_)"/><polygon fill="#898F9D" points=".375 5.848 12.629 15.344 12.461 15.344 .375 5.98" clip-path="url(#XMLID_9_)"/><polygon fill="#878E9B" points=".375 5.715 12.801 15.344 12.629 15.344 .375 5.848" clip-path="url(#XMLID_9_)"/><polygon fill="#878D9B" points=".375 5.582 12.973 15.344 12.801 15.344 .375 5.715" clip-path="url(#XMLID_9_)"/><polygon fill="#858C9A" points=".375 5.449 13.141 15.344 12.973 15.344 .375 5.582" clip-path="url(#XMLID_9_)"/><polygon fill="#848B98" points=".375 5.316 13.312 15.344 13.141 15.344 .375 5.449" clip-path="url(#XMLID_9_)"/><polygon fill="#838A97" points=".375 5.184 13.484 15.344 13.312 15.344 .375 5.316" clip-path="url(#XMLID_9_)"/><polygon fill="#828997" points=".375 5.051 13.656 15.344 13.484 15.344 .375 5.184" clip-path="url(#XMLID_9_)"/><polygon fill="#818895" points=".375 4.918 13.828 15.344 13.656 15.344 .375 5.051" clip-path="url(#XMLID_9_)"/><polygon fill="#808794" points=".375 4.785 14 15.344 13.828 15.344 .375 4.918" clip-path="url(#XMLID_9_)"/><polygon fill="#7E8594" points=".375 4.652 14.172 15.344 14 15.344 .375 4.785" clip-path="url(#XMLID_9_)"/><polygon fill="#7D8593" points=".375 4.52 14.34 15.344 14.172 15.344 .375 4.652" clip-path="url(#XMLID_9_)"/><polygon fill="#7C8392" points=".375 4.387 14.512 15.344 14.34 15.344 .375 4.52" clip-path="url(#XMLID_9_)"/><polygon fill="#7B8290" points=".375 4.258 14.68 15.344 14.512 15.344 .375 4.387" clip-path="url(#XMLID_9_)"/><polygon fill="#7A8190" points=".375 4.125 14.852 15.344 14.68 15.344 .375 4.258" clip-path="url(#XMLID_9_)"/><polygon fill="#79808F" points=".375 3.992 15.023 15.344 14.852 15.344 .375 4.125" clip-path="url(#XMLID_9_)"/><polygon fill="#787F8D" points=".375 3.859 15.195 15.344 15.023 15.344 .375 3.992" clip-path="url(#XMLID_9_)"/><polygon fill="#777E8D" points=".375 3.727 15.312 15.301 15.277 15.344 15.195 15.344 .375 3.859" clip-path="url(#XMLID_9_)"/><polygon fill="#767D8C" points=".375 3.594 15.344 15.195 15.344 15.258 15.312 15.301 .375 3.727" clip-path="url(#XMLID_9_)"/><polygon fill="#767C8B" points=".375 3.461 15.344 15.062 15.344 15.195 .375 3.594" clip-path="url(#XMLID_9_)"/><polygon fill="#747B8A" points=".375 3.328 15.344 14.93 15.344 15.062 .375 3.461" clip-path="url(#XMLID_9_)"/><polygon fill="#737A89" points=".375 3.195 15.344 14.797 15.344 14.93 .375 3.328" clip-path="url(#XMLID_9_)"/><polygon fill="#727989" points=".375 3.062 15.344 14.664 15.344 14.797 .375 3.195" clip-path="url(#XMLID_9_)"/><polygon fill="#717888" points=".375 2.93 15.344 14.531 15.344 14.664 .375 3.062" clip-path="url(#XMLID_9_)"/><polygon fill="#707786" points=".375 2.797 15.344 14.398 15.344 14.531 .375 2.93" clip-path="url(#XMLID_9_)"/><polygon fill="#6F7686" points=".375 2.664 15.344 14.266 15.344 14.398 .375 2.797" clip-path="url(#XMLID_9_)"/><polygon fill="#6D7585" points=".375 2.531 15.344 14.133 15.344 14.266 .375 2.664" clip-path="url(#XMLID_9_)"/><polygon fill="#6D7584" points=".375 2.398 15.344 14 15.344 14.133 .375 2.531" clip-path="url(#XMLID_9_)"/><polygon fill="#6C7383" points=".375 2.266 15.344 13.867 15.344 14 .375 2.398" clip-path="url(#XMLID_9_)"/><polygon fill="#6B7383" points=".375 2.137 15.344 13.734 15.344 13.867 .375 2.266" clip-path="url(#XMLID_9_)"/><polygon fill="#6A7281" points=".375 2 15.344 13.602 15.344 13.734 .375 2.137" clip-path="url(#XMLID_9_)"/><polygon fill="#697181" points=".375 1.871 15.344 13.469 15.344 13.602 .375 2" clip-path="url(#XMLID_9_)"/><polygon fill="#697080" points=".375 1.738 15.344 13.336 15.344 13.469 .375 1.871" clip-path="url(#XMLID_9_)"/><polygon fill="#686F7F" points=".375 1.605 15.344 13.207 15.344 13.336 .375 1.738" clip-path="url(#XMLID_9_)"/><polygon fill="#676E7E" points=".375 1.473 15.344 13.074 15.344 13.207 .375 1.605" clip-path="url(#XMLID_9_)"/><polygon fill="#656D7D" points="15.344 12.941 .375 1.34 .375 1.473 15.344 13.074" clip-path="url(#XMLID_9_)"/><polygon fill="#646C7D" points="15.344 12.809 .375 1.207 .375 1.34 15.344 12.941" clip-path="url(#XMLID_9_)"/><polygon fill="#646C7C" points=".375 1.074 15.344 12.676 15.344 12.809 .375 1.207" clip-path="url(#XMLID_9_)"/><polygon fill="#636B7C" points=".375 .941 15.344 12.543 15.344 12.676 .375 1.074" clip-path="url(#XMLID_9_)"/><polygon fill="#626B7B" points="15.344 12.41 .375 .809 .375 .941 15.344 12.543" clip-path="url(#XMLID_9_)"/><polygon fill="#616A7A" points=".375 .676 15.344 12.277 15.344 12.41 .375 .809" clip-path="url(#XMLID_9_)"/><polygon fill="#606979" points=".375 .543 15.344 12.145 15.344 12.277 .375 .676" clip-path="url(#XMLID_9_)"/><polygon fill="#5F6878" points=".375 .461 .398 .43 15.344 12.012 15.344 12.145 .375 .543" clip-path="url(#XMLID_9_)"/><polygon fill="#5F6878" points=".398 .43 .441 .375 .5 .375 15.344 11.879 15.344 12.012" clip-path="url(#XMLID_9_)"/><polygon fill="#5E6777" points=".672 .375 15.344 11.746 15.344 11.879 .5 .375" clip-path="url(#XMLID_9_)"/><polygon fill="#5D6676" points=".84 .375 15.344 11.613 15.344 11.746 .672 .375" clip-path="url(#XMLID_9_)"/><polygon fill="#5C6576" points="1.012 .375 15.344 11.48 15.344 11.613 .84 .375" clip-path="url(#XMLID_9_)"/><polygon fill="#5B6475" points="1.184 .375 15.344 11.352 15.344 11.48 1.012 .375" clip-path="url(#XMLID_9_)"/><polygon fill="#5B6475" points="1.355 .375 15.344 11.219 15.344 11.352 1.184 .375" clip-path="url(#XMLID_9_)"/><polygon fill="#5A6373" points="1.523 .375 15.344 11.086 15.344 11.219 1.355 .375" clip-path="url(#XMLID_9_)"/><polygon fill="#596273" points="1.695 .375 15.344 10.953 15.344 11.086 1.523 .375" clip-path="url(#XMLID_9_)"/><polygon fill="#586172" points="1.867 .375 15.344 10.82 15.344 10.953 1.695 .375" clip-path="url(#XMLID_9_)"/><polygon fill="#576172" points="2.039 .375 15.344 10.688 15.344 10.82 1.867 .375" clip-path="url(#XMLID_9_)"/><polygon fill="#566071" points="2.211 .375 15.344 10.555 15.344 10.688 2.039 .375" clip-path="url(#XMLID_9_)"/><polygon fill="#566070" points="2.379 .375 15.344 10.422 15.344 10.555 2.211 .375" clip-path="url(#XMLID_9_)"/><polygon fill="#555F70" points="2.551 .375 15.344 10.289 15.344 10.422 2.379 .375" clip-path="url(#XMLID_9_)"/><polygon fill="#545E6F" points="2.723 .375 15.344 10.156 15.344 10.289 2.551 .375" clip-path="url(#XMLID_9_)"/><polygon fill="#535E6F" points="2.891 .375 15.344 10.023 15.344 10.156 2.723 .375" clip-path="url(#XMLID_9_)"/><polygon fill="#535D6E" points="3.062 .375 15.344 9.891 15.344 10.023 2.891 .375" clip-path="url(#XMLID_9_)"/><polygon fill="#525C6D" points="15.344 9.758 3.234 .375 3.062 .375 15.344 9.891" clip-path="url(#XMLID_9_)"/><polygon fill="#515C6D" points="3.406 .375 15.344 9.625 15.344 9.758 3.234 .375" clip-path="url(#XMLID_9_)"/><polygon fill="#505B6C" points="3.578 .375 15.344 9.492 15.344 9.625 3.406 .375" clip-path="url(#XMLID_9_)"/><polygon fill="#505B6C" points="3.75 .375 15.344 9.359 15.344 9.492 3.578 .375" clip-path="url(#XMLID_9_)"/><polygon fill="#505A6B" points="3.918 .375 15.344 9.227 15.344 9.359 3.75 .375" clip-path="url(#XMLID_9_)"/><polygon fill="#4F596A" points="4.09 .375 15.344 9.098 15.344 9.227 3.918 .375" clip-path="url(#XMLID_9_)"/><polygon fill="#4E596A" points="4.262 .375 15.344 8.965 15.344 9.098 4.09 .375" clip-path="url(#XMLID_9_)"/><polygon fill="#4D5869" points="4.434 .375 15.344 8.832 15.344 8.965 4.262 .375" clip-path="url(#XMLID_9_)"/><polygon fill="#4C5869" points="4.602 .375 15.344 8.699 15.344 8.832 4.434 .375" clip-path="url(#XMLID_9_)"/><polygon fill="#4C5768" points="4.773 .375 15.344 8.566 15.344 8.699 4.602 .375" clip-path="url(#XMLID_9_)"/><polygon fill="#4B5768" points="4.945 .375 15.344 8.434 15.344 8.566 4.773 .375" clip-path="url(#XMLID_9_)"/><polygon fill="#4B5667" points="5.117 .375 15.344 8.301 15.344 8.434 4.945 .375" clip-path="url(#XMLID_9_)"/><polygon fill="#4A5567" points="5.289 .375 15.344 8.168 15.344 8.301 5.117 .375" clip-path="url(#XMLID_9_)"/><polygon fill="#495566" points="5.461 .375 15.344 8.035 15.344 8.168 5.289 .375" clip-path="url(#XMLID_9_)"/><polygon fill="#485566" points="15.344 7.902 5.629 .375 5.461 .375 15.344 8.035" clip-path="url(#XMLID_9_)"/><polygon fill="#485466" points="15.344 7.77 5.801 .375 5.629 .375 15.344 7.902" clip-path="url(#XMLID_9_)"/><polygon fill="#475365" points="5.973 .375 15.344 7.637 15.344 7.77 5.801 .375" clip-path="url(#XMLID_9_)"/><polygon fill="#475365" points="6.145 .375 15.344 7.508 15.344 7.637 5.973 .375" clip-path="url(#XMLID_9_)"/><polygon fill="#465264" points="6.312 .375 15.344 7.375 15.344 7.508 6.145 .375" clip-path="url(#XMLID_9_)"/><polygon fill="#455264" points="15.344 7.242 6.484 .375 6.312 .375 15.344 7.375" clip-path="url(#XMLID_9_)"/><polygon fill="#445263" points="6.656 .375 15.344 7.109 15.344 7.242 6.484 .375" clip-path="url(#XMLID_9_)"/><polygon fill="#445163" points="6.828 .375 15.344 6.977 15.344 7.109 6.656 .375" clip-path="url(#XMLID_9_)"/><polygon fill="#445062" points="7 .375 15.344 6.844 15.344 6.977 6.828 .375" clip-path="url(#XMLID_9_)"/><polygon fill="#425062" points="7.168 .375 15.344 6.711 15.344 6.844 7 .375" clip-path="url(#XMLID_9_)"/><polygon fill="#425062" points="7.34 .375 15.344 6.578 15.344 6.711 7.168 .375" clip-path="url(#XMLID_9_)"/><polygon fill="#424F61" points="7.512 .375 15.344 6.445 15.344 6.578 7.34 .375" clip-path="url(#XMLID_9_)"/><polygon fill="#414F61" points="7.68 .375 15.344 6.312 15.344 6.445 7.512 .375" clip-path="url(#XMLID_9_)"/><polygon fill="#404E60" points="7.852 .375 15.344 6.18 15.344 6.312 7.68 .375" clip-path="url(#XMLID_9_)"/><polygon fill="#3F4E60" points="8.023 .375 15.344 6.047 15.344 6.18 7.852 .375" clip-path="url(#XMLID_9_)"/><polygon fill="#3F4D60" points="8.195 .375 15.344 5.914 15.344 6.047 8.023 .375" clip-path="url(#XMLID_9_)"/><polygon fill="#3F4D5F" points="8.367 .375 15.344 5.781 15.344 5.914 8.195 .375" clip-path="url(#XMLID_9_)"/><polygon fill="#3E4D5F" points="8.539 .375 15.344 5.648 15.344 5.781 8.367 .375" clip-path="url(#XMLID_9_)"/><polygon fill="#3E4C5E" points="8.711 .375 15.344 5.516 15.344 5.648 8.539 .375" clip-path="url(#XMLID_9_)"/><polygon fill="#3D4C5E" points="8.879 .375 15.344 5.383 15.344 5.516 8.711 .375" clip-path="url(#XMLID_9_)"/><polygon fill="#3D4C5E" points="9.051 .375 15.344 5.25 15.344 5.383 8.879 .375" clip-path="url(#XMLID_9_)"/><polygon fill="#3C4B5D" points="15.344 5.121 9.223 .375 9.051 .375 15.344 5.25" clip-path="url(#XMLID_9_)"/><polygon fill="#3C4B5D" points="9.391 .375 15.344 4.988 15.344 5.121 9.223 .375" clip-path="url(#XMLID_9_)"/><polygon fill="#3C4B5D" points="9.562 .375 15.344 4.855 15.344 4.988 9.391 .375" clip-path="url(#XMLID_9_)"/><polygon fill="#3B4A5C" points="9.734 .375 15.344 4.723 15.344 4.855 9.562 .375" clip-path="url(#XMLID_9_)"/><polygon fill="#3B4A5C" points="9.906 .375 15.344 4.59 15.344 4.723 9.734 .375" clip-path="url(#XMLID_9_)"/><polygon fill="#3A495C" points="10.078 .375 15.344 4.457 15.344 4.59 9.906 .375" clip-path="url(#XMLID_9_)"/><polygon fill="#3A495B" points="10.25 .375 15.344 4.324 15.344 4.457 10.078 .375" clip-path="url(#XMLID_9_)"/><polygon fill="#39495B" points="10.418 .375 15.344 4.191 15.344 4.324 10.25 .375" clip-path="url(#XMLID_9_)"/><polygon fill="#38495B" points="10.59 .375 15.344 4.059 15.344 4.191 10.418 .375" clip-path="url(#XMLID_9_)"/><polygon fill="#38485B" points="10.762 .375 15.344 3.926 15.344 4.059 10.59 .375" clip-path="url(#XMLID_9_)"/><polygon fill="#38485A" points="10.93 .375 15.344 3.793 15.344 3.926 10.762 .375" clip-path="url(#XMLID_9_)"/><polygon fill="#37485A" points="11.102 .375 15.344 3.66 15.344 3.793 10.93 .375" clip-path="url(#XMLID_9_)"/><polygon fill="#38475A" points="11.273 .375 15.344 3.531 15.344 3.66 11.102 .375" clip-path="url(#XMLID_9_)"/><polygon fill="#37475A" points="11.445 .375 15.344 3.398 15.344 3.531 11.273 .375" clip-path="url(#XMLID_9_)"/><polygon fill="#374659" points="11.617 .375 15.344 3.266 15.344 3.398 11.445 .375" clip-path="url(#XMLID_9_)"/><polygon fill="#364659" points="11.789 .375 15.344 3.133 15.344 3.266 11.617 .375" clip-path="url(#XMLID_9_)"/><polygon fill="#364659" points="11.957 .375 15.344 3 15.344 3.133 11.789 .375" clip-path="url(#XMLID_9_)"/><polygon fill="#364659" points="12.129 .375 15.344 2.867 15.344 3 11.957 .375" clip-path="url(#XMLID_9_)"/><polygon fill="#354659" points="12.301 .375 15.344 2.734 15.344 2.867 12.129 .375" clip-path="url(#XMLID_9_)"/><polygon fill="#354659" points="12.469 .375 15.344 2.602 15.344 2.734 12.301 .375" clip-path="url(#XMLID_9_)"/><polygon fill="#354658" points="12.641 .375 15.344 2.469 15.344 2.602 12.469 .375" clip-path="url(#XMLID_9_)"/><polygon fill="#344558" points="12.812 .375 15.344 2.336 15.344 2.469 12.641 .375" clip-path="url(#XMLID_9_)"/><polygon fill="#344558" points="12.984 .375 15.344 2.203 15.344 2.336 12.812 .375" clip-path="url(#XMLID_9_)"/><polygon fill="#344558" points="13.156 .375 15.344 2.07 15.344 2.203 12.984 .375" clip-path="url(#XMLID_9_)"/><polygon fill="#344558" points="13.328 .375 15.344 1.938 15.344 2.07 13.156 .375" clip-path="url(#XMLID_9_)"/><polygon fill="#344558" points="15.344 1.938 13.328 .375 15.344 .375" clip-path="url(#XMLID_9_)"/></g><path fill="#AEADAE" d="M14.969,7.859c0,3.92-3.189,7.109-7.109,7.109S0.75,11.779,0.75,7.859S3.939,0.75,7.859,0.75	S14.969,3.939,14.969,7.859z M7.859,0C3.525,0,0,3.526,0,7.859c0,4.334,3.525,7.859,7.859,7.859s7.859-3.525,7.859-7.859	C15.719,3.526,12.193,0,7.859,0z"/><path fill="#FFF" d="M8.799,4.274v7.601H7.754V6.474H6.005V5.715c0.483-0.011,1.716-0.044,1.991-1.441H8.799z"/></svg>