<svg xmlns="http://www.w3.org/2000/svg" xmlns:xlink="http://www.w3.org/1999/xlink" width="17" height="16" enable-background="new -.75 -.258 17 16" version="1.1" viewBox="-0.75 -0.258 17 16" xml:space="preserve"><g><defs><circle id="XMLID_6_" cx="7.859" cy="7.858" r="7.484"/></defs><clipPath id="XMLID_9_"><use xlink:href="#XMLID_6_"/></clipPath><polygon fill="#CBD2D8" points=".375 13.379 2.148 15.344 .375 15.344" clip-path="url(#XMLID_9_)"/><polygon fill="#CBD2D8" points=".375 13.207 2.301 15.344 2.148 15.344 .375 13.379" clip-path="url(#XMLID_9_)"/><polygon fill="#C9D0D5" points="2.457 15.344 .375 13.039 .375 13.207 2.301 15.344" clip-path="url(#XMLID_9_)"/><polygon fill="#C6CDD3" points=".375 12.867 2.609 15.344 2.457 15.344 .375 13.039" clip-path="url(#XMLID_9_)"/><polygon fill="#C5CCD2" points=".375 12.695 2.766 15.344 2.609 15.344 .375 12.867" clip-path="url(#XMLID_9_)"/><polygon fill="#C3C9D0" points=".375 12.523 2.918 15.344 2.766 15.344 .375 12.695" clip-path="url(#XMLID_9_)"/><polygon fill="#C1C8CE" points=".375 12.352 3.07 15.344 2.918 15.344 .375 12.523" clip-path="url(#XMLID_9_)"/><polygon fill="#BFC5CC" points=".375 12.184 3.227 15.344 3.07 15.344 .375 12.352" clip-path="url(#XMLID_9_)"/><polygon fill="#BEC4CB" points=".375 12.012 3.379 15.344 3.227 15.344 .375 12.184" clip-path="url(#XMLID_9_)"/><polygon fill="#BBC2C9" points=".375 11.844 3.531 15.344 3.379 15.344 .375 12.012" clip-path="url(#XMLID_9_)"/><polygon fill="#BAC0C8" points=".375 11.672 3.688 15.344 3.531 15.344 .375 11.844" clip-path="url(#XMLID_9_)"/><polygon fill="#B7BEC6" points=".375 11.5 3.844 15.344 3.688 15.344 .375 11.672" clip-path="url(#XMLID_9_)"/><polygon fill="#B6BDC5" points=".375 11.328 3.996 15.344 3.844 15.344 .375 11.5" clip-path="url(#XMLID_9_)"/><polygon fill="#B5BBC3" points=".375 11.16 4.148 15.344 3.996 15.344 .375 11.328" clip-path="url(#XMLID_9_)"/><polygon fill="#B3BAC2" points=".375 10.988 4.305 15.344 4.148 15.344 .375 11.16" clip-path="url(#XMLID_9_)"/><polygon fill="#B1B7C0" points=".375 10.816 4.457 15.344 4.305 15.344 .375 10.988" clip-path="url(#XMLID_9_)"/><polygon fill="#B0B6BF" points="4.613 15.344 .375 10.648 .375 10.816 4.457 15.344" clip-path="url(#XMLID_9_)"/><polygon fill="#AEB5BE" points=".375 10.477 4.766 15.344 4.613 15.344 .375 10.648" clip-path="url(#XMLID_9_)"/><polygon fill="#ADB3BC" points=".375 10.305 4.922 15.344 4.766 15.344 .375 10.477" clip-path="url(#XMLID_9_)"/><polygon fill="#ABB2BC" points=".375 10.133 5.074 15.344 4.922 15.344 .375 10.305" clip-path="url(#XMLID_9_)"/><polygon fill="#AAB0BA" points=".375 9.965 5.227 15.344 5.074 15.344 .375 10.133" clip-path="url(#XMLID_9_)"/><polygon fill="#A8AEB8" points=".375 9.797 5.383 15.344 5.227 15.344 .375 9.965" clip-path="url(#XMLID_9_)"/><polygon fill="#A6ADB7" points=".375 9.625 5.535 15.344 5.383 15.344 .375 9.797" clip-path="url(#XMLID_9_)"/><polygon fill="#A6ACB6" points=".375 9.453 5.691 15.344 5.535 15.344 .375 9.625" clip-path="url(#XMLID_9_)"/><polygon fill="#A3AAB4" points="5.844 15.344 .375 9.281 .375 9.453 5.691 15.344" clip-path="url(#XMLID_9_)"/><polygon fill="#A2A8B3" points=".375 9.109 6 15.344 5.844 15.344 .375 9.281" clip-path="url(#XMLID_9_)"/><polygon fill="#A0A7B1" points=".375 8.941 6.152 15.344 6 15.344 .375 9.109" clip-path="url(#XMLID_9_)"/><polygon fill="#9FA6B0" points="6.305 15.344 .375 8.77 .375 8.941 6.152 15.344" clip-path="url(#XMLID_9_)"/><polygon fill="#9EA4AF" points="6.461 15.344 .375 8.602 .375 8.77 6.305 15.344" clip-path="url(#XMLID_9_)"/><polygon fill="#9CA3AE" points=".375 8.43 6.613 15.344 6.461 15.344 .375 8.602" clip-path="url(#XMLID_9_)"/><polygon fill="#9BA1AD" points=".375 8.258 6.77 15.344 6.613 15.344 .375 8.43" clip-path="url(#XMLID_9_)"/><polygon fill="#9AA0AB" points=".375 8.086 6.922 15.344 6.77 15.344 .375 8.258" clip-path="url(#XMLID_9_)"/><polygon fill="#989FAA" points=".375 7.914 7.078 15.344 6.922 15.344 .375 8.086" clip-path="url(#XMLID_9_)"/><polygon fill="#979EAA" points=".375 7.746 7.23 15.344 7.078 15.344 .375 7.914" clip-path="url(#XMLID_9_)"/><polygon fill="#969CA8" points=".375 7.574 7.383 15.344 7.23 15.344 .375 7.746" clip-path="url(#XMLID_9_)"/><polygon fill="#949BA7" points=".375 7.406 7.539 15.344 7.383 15.344 .375 7.574" clip-path="url(#XMLID_9_)"/><polygon fill="#9399A5" points=".375 7.234 7.691 15.344 7.539 15.344 .375 7.406" clip-path="url(#XMLID_9_)"/><polygon fill="#9298A4" points=".375 7.062 7.848 15.344 7.691 15.344 .375 7.234" clip-path="url(#XMLID_9_)"/><polygon fill="#9097A3" points=".375 6.891 8 15.344 7.848 15.344 .375 7.062" clip-path="url(#XMLID_9_)"/><polygon fill="#8F95A2" points=".375 6.723 8.156 15.344 8 15.344 .375 6.891" clip-path="url(#XMLID_9_)"/><polygon fill="#8E95A1" points="8.309 15.344 .375 6.551 .375 6.723 8.156 15.344" clip-path="url(#XMLID_9_)"/><polygon fill="#8D93A0" points=".375 6.383 8.461 15.344 8.309 15.344 .375 6.551" clip-path="url(#XMLID_9_)"/><polygon fill="#8B929F" points=".375 6.211 8.617 15.344 8.461 15.344 .375 6.383" clip-path="url(#XMLID_9_)"/><polygon fill="#8A919E" points=".375 6.039 8.77 15.344 8.617 15.344 .375 6.211" clip-path="url(#XMLID_9_)"/><polygon fill="#898F9D" points=".375 5.867 8.926 15.344 8.77 15.344 .375 6.039" clip-path="url(#XMLID_9_)"/><polygon fill="#878E9B" points=".375 5.695 9.078 15.344 8.926 15.344 .375 5.867" clip-path="url(#XMLID_9_)"/><polygon fill="#878D9B" points=".375 5.527 9.234 15.344 9.078 15.344 .375 5.695" clip-path="url(#XMLID_9_)"/><polygon fill="#858C9A" points="9.387 15.344 .375 5.355 .375 5.527 9.234 15.344" clip-path="url(#XMLID_9_)"/><polygon fill="#848B98" points=".375 5.188 9.539 15.344 9.387 15.344 .375 5.355" clip-path="url(#XMLID_9_)"/><polygon fill="#838A97" points=".375 5.016 9.695 15.344 9.539 15.344 .375 5.188" clip-path="url(#XMLID_9_)"/><polygon fill="#828997" points=".375 4.844 9.848 15.344 9.695 15.344 .375 5.016" clip-path="url(#XMLID_9_)"/><polygon fill="#818895" points=".375 4.676 10 15.344 9.848 15.344 .375 4.844" clip-path="url(#XMLID_9_)"/><polygon fill="#808794" points=".375 4.504 10.156 15.344 10 15.344 .375 4.676" clip-path="url(#XMLID_9_)"/><polygon fill="#7E8594" points=".375 4.332 10.312 15.344 10.156 15.344 .375 4.504" clip-path="url(#XMLID_9_)"/><polygon fill="#7D8593" points="10.465 15.344 .375 4.164 .375 4.332 10.312 15.344" clip-path="url(#XMLID_9_)"/><polygon fill="#7C8392" points=".375 3.992 10.617 15.344 10.465 15.344 .375 4.164" clip-path="url(#XMLID_9_)"/><polygon fill="#7B8290" points="10.773 15.344 .375 3.82 .375 3.992 10.617 15.344" clip-path="url(#XMLID_9_)"/><polygon fill="#7A8190" points=".375 3.648 10.926 15.344 10.773 15.344 .375 3.82" clip-path="url(#XMLID_9_)"/><polygon fill="#79808F" points=".375 3.477 11.082 15.344 10.926 15.344 .375 3.648" clip-path="url(#XMLID_9_)"/><polygon fill="#787F8D" points=".375 3.309 11.234 15.344 11.082 15.344 .375 3.477" clip-path="url(#XMLID_9_)"/><polygon fill="#777E8D" points=".375 3.137 11.391 15.344 11.234 15.344 .375 3.309" clip-path="url(#XMLID_9_)"/><polygon fill="#767D8C" points=".375 2.969 11.543 15.344 11.391 15.344 .375 3.137" clip-path="url(#XMLID_9_)"/><polygon fill="#767C8B" points=".375 2.797 11.695 15.344 11.543 15.344 .375 2.969" clip-path="url(#XMLID_9_)"/><polygon fill="#747B8A" points="11.852 15.344 .375 2.625 .375 2.797 11.695 15.344" clip-path="url(#XMLID_9_)"/><polygon fill="#737A89" points=".375 2.453 12.004 15.344 11.852 15.344 .375 2.625" clip-path="url(#XMLID_9_)"/><polygon fill="#727989" points=".375 2.285 12.156 15.344 12.004 15.344 .375 2.453" clip-path="url(#XMLID_9_)"/><polygon fill="#717888" points=".375 2.113 12.312 15.344 12.156 15.344 .375 2.285" clip-path="url(#XMLID_9_)"/><polygon fill="#707786" points="12.469 15.344 .375 1.941 .375 2.113 12.312 15.344" clip-path="url(#XMLID_9_)"/><polygon fill="#6F7686" points=".375 1.773 12.621 15.344 12.469 15.344 .375 1.941" clip-path="url(#XMLID_9_)"/><polygon fill="#6D7585" points=".375 1.602 12.773 15.344 12.621 15.344 .375 1.773" clip-path="url(#XMLID_9_)"/><polygon fill="#6D7584" points=".375 1.43 12.93 15.344 12.773 15.344 .375 1.602" clip-path="url(#XMLID_9_)"/><polygon fill="#6C7383" points=".375 1.262 13.082 15.344 12.93 15.344 .375 1.43" clip-path="url(#XMLID_9_)"/><polygon fill="#6B7383" points=".375 1.09 13.238 15.344 13.082 15.344 .375 1.262" clip-path="url(#XMLID_9_)"/><polygon fill="#6A7281" points=".375 .918 13.391 15.344 13.238 15.344 .375 1.09" clip-path="url(#XMLID_9_)"/><polygon fill="#697181" points=".375 .75 13.547 15.344 13.391 15.344 .375 .918" clip-path="url(#XMLID_9_)"/><polygon fill="#697080" points=".375 .703 .438 .648 13.699 15.344 13.547 15.344 .375 .75" clip-path="url(#XMLID_9_)"/><polygon fill="#686F7F" points=".438 .648 .523 .57 13.852 15.344 13.699 15.344" clip-path="url(#XMLID_9_)"/><polygon fill="#676E7E" points=".523 .57 .609 .492 14.008 15.344 13.852 15.344" clip-path="url(#XMLID_9_)"/><polygon fill="#656D7D" points=".609 .492 .691 .418 14.16 15.344 14.008 15.344" clip-path="url(#XMLID_9_)"/><polygon fill="#646C7D" points=".691 .418 .738 .375 .809 .375 14.312 15.344 14.16 15.344" clip-path="url(#XMLID_9_)"/><polygon fill="#646C7C" points=".961 .375 14.469 15.344 14.312 15.344 .809 .375" clip-path="url(#XMLID_9_)"/><polygon fill="#636B7C" points="1.117 .375 14.625 15.344 14.469 15.344 .961 .375" clip-path="url(#XMLID_9_)"/><polygon fill="#626B7B" points="1.27 .375 14.777 15.344 14.625 15.344 1.117 .375" clip-path="url(#XMLID_9_)"/><polygon fill="#616A7A" points="1.426 .375 14.93 15.344 14.777 15.344 1.27 .375" clip-path="url(#XMLID_9_)"/><polygon fill="#606979" points="1.578 .375 15.039 15.289 14.98 15.344 14.93 15.344 1.426 .375" clip-path="url(#XMLID_9_)"/><polygon fill="#5F6878" points="1.734 .375 15.125 15.215 15.039 15.289 1.578 .375" clip-path="url(#XMLID_9_)"/><polygon fill="#5F6878" points="1.887 .375 15.207 15.137 15.125 15.215 1.734 .375" clip-path="url(#XMLID_9_)"/><polygon fill="#5E6777" points="15.207 15.137 15.293 15.062 2.039 .375 1.887 .375" clip-path="url(#XMLID_9_)"/><polygon fill="#5D6676" points="2.195 .375 15.344 14.945 15.344 15.016 15.293 15.062 2.039 .375" clip-path="url(#XMLID_9_)"/><polygon fill="#5C6576" points="2.348 .375 15.344 14.777 15.344 14.945 2.195 .375" clip-path="url(#XMLID_9_)"/><polygon fill="#5B6475" points="2.5 .375 15.344 14.605 15.344 14.777 2.348 .375" clip-path="url(#XMLID_9_)"/><polygon fill="#5B6475" points="2.656 .375 15.344 14.434 15.344 14.605 2.5 .375" clip-path="url(#XMLID_9_)"/><polygon fill="#5A6373" points="2.812 .375 15.344 14.266 15.344 14.434 2.656 .375" clip-path="url(#XMLID_9_)"/><polygon fill="#596273" points="2.965 .375 15.344 14.094 15.344 14.266 2.812 .375" clip-path="url(#XMLID_9_)"/><polygon fill="#586172" points="3.117 .375 15.344 13.922 15.344 14.094 2.965 .375" clip-path="url(#XMLID_9_)"/><polygon fill="#576172" points="3.273 .375 15.344 13.75 15.344 13.922 3.117 .375" clip-path="url(#XMLID_9_)"/><polygon fill="#566071" points="15.344 13.582 3.426 .375 3.273 .375 15.344 13.75" clip-path="url(#XMLID_9_)"/><polygon fill="#566070" points="3.582 .375 15.344 13.41 15.344 13.582 3.426 .375" clip-path="url(#XMLID_9_)"/><polygon fill="#555F70" points="3.734 .375 15.344 13.238 15.344 13.41 3.582 .375" clip-path="url(#XMLID_9_)"/><polygon fill="#545E6F" points="15.344 13.07 3.891 .375 3.734 .375 15.344 13.238" clip-path="url(#XMLID_9_)"/><polygon fill="#535E6F" points="4.043 .375 15.344 12.898 15.344 13.07 3.891 .375" clip-path="url(#XMLID_9_)"/><polygon fill="#535D6E" points="15.344 12.727 4.195 .375 4.043 .375 15.344 12.898" clip-path="url(#XMLID_9_)"/><polygon fill="#525C6D" points="4.352 .375 15.344 12.559 15.344 12.727 4.195 .375" clip-path="url(#XMLID_9_)"/><polygon fill="#515C6D" points="4.504 .375 15.344 12.387 15.344 12.559 4.352 .375" clip-path="url(#XMLID_9_)"/><polygon fill="#505B6C" points="4.656 .375 15.344 12.219 15.344 12.387 4.504 .375" clip-path="url(#XMLID_9_)"/><polygon fill="#505B6C" points="4.812 .375 15.344 12.047 15.344 12.219 4.656 .375" clip-path="url(#XMLID_9_)"/><polygon fill="#505A6B" points="4.969 .375 15.344 11.875 15.344 12.047 4.812 .375" clip-path="url(#XMLID_9_)"/><polygon fill="#4F596A" points="5.121 .375 15.344 11.703 15.344 11.875 4.969 .375" clip-path="url(#XMLID_9_)"/><polygon fill="#4E596A" points="5.273 .375 15.344 11.531 15.344 11.703 5.121 .375" clip-path="url(#XMLID_9_)"/><polygon fill="#4D5869" points="5.43 .375 15.344 11.363 15.344 11.531 5.273 .375" clip-path="url(#XMLID_9_)"/><polygon fill="#4C5869" points="5.582 .375 15.344 11.191 15.344 11.363 5.43 .375" clip-path="url(#XMLID_9_)"/><polygon fill="#4C5768" points="5.738 .375 15.344 11.023 15.344 11.191 5.582 .375" clip-path="url(#XMLID_9_)"/><polygon fill="#4B5768" points="5.891 .375 15.344 10.852 15.344 11.023 5.738 .375" clip-path="url(#XMLID_9_)"/><polygon fill="#4B5667" points="6.047 .375 15.344 10.68 15.344 10.852 5.891 .375" clip-path="url(#XMLID_9_)"/><polygon fill="#4A5567" points="6.199 .375 15.344 10.508 15.344 10.68 6.047 .375" clip-path="url(#XMLID_9_)"/><polygon fill="#495566" points="6.352 .375 15.344 10.34 15.344 10.508 6.199 .375" clip-path="url(#XMLID_9_)"/><polygon fill="#485566" points="6.508 .375 15.344 10.168 15.344 10.34 6.352 .375" clip-path="url(#XMLID_9_)"/><polygon fill="#485466" points="6.66 .375 15.344 10 15.344 10.168 6.508 .375" clip-path="url(#XMLID_9_)"/><polygon fill="#475365" points="6.812 .375 15.344 9.828 15.344 10 6.66 .375" clip-path="url(#XMLID_9_)"/><polygon fill="#475365" points="6.969 .375 15.344 9.656 15.344 9.828 6.812 .375" clip-path="url(#XMLID_9_)"/><polygon fill="#465264" points="7.125 .375 15.344 9.484 15.344 9.656 6.969 .375" clip-path="url(#XMLID_9_)"/><polygon fill="#455264" points="7.277 .375 15.344 9.312 15.344 9.484 7.125 .375" clip-path="url(#XMLID_9_)"/><polygon fill="#445263" points="7.43 .375 15.344 9.145 15.344 9.312 7.277 .375" clip-path="url(#XMLID_9_)"/><polygon fill="#445163" points="7.586 .375 15.344 8.973 15.344 9.145 7.43 .375" clip-path="url(#XMLID_9_)"/><polygon fill="#445062" points="15.344 8.805 7.738 .375 7.586 .375 15.344 8.973" clip-path="url(#XMLID_9_)"/><polygon fill="#425062" points="7.895 .375 15.344 8.633 15.344 8.805 7.738 .375" clip-path="url(#XMLID_9_)"/><polygon fill="#425062" points="8.047 .375 15.344 8.461 15.344 8.633 7.895 .375" clip-path="url(#XMLID_9_)"/><polygon fill="#424F61" points="15.344 8.289 8.203 .375 8.047 .375 15.344 8.461" clip-path="url(#XMLID_9_)"/><polygon fill="#414F61" points="8.355 .375 15.344 8.121 15.344 8.289 8.203 .375" clip-path="url(#XMLID_9_)"/><polygon fill="#404E60" points="8.508 .375 15.344 7.949 15.344 8.121 8.355 .375" clip-path="url(#XMLID_9_)"/><polygon fill="#3F4E60" points="8.664 .375 15.344 7.781 15.344 7.949 8.508 .375" clip-path="url(#XMLID_9_)"/><polygon fill="#3F4D60" points="15.344 7.609 8.816 .375 8.664 .375 15.344 7.781" clip-path="url(#XMLID_9_)"/><polygon fill="#3F4D5F" points="8.969 .375 15.344 7.438 15.344 7.609 8.816 .375" clip-path="url(#XMLID_9_)"/><polygon fill="#3E4D5F" points="9.125 .375 15.344 7.266 15.344 7.438 8.969 .375" clip-path="url(#XMLID_9_)"/><polygon fill="#3E4C5E" points="9.281 .375 15.344 7.094 15.344 7.266 9.125 .375" clip-path="url(#XMLID_9_)"/><polygon fill="#3D4C5E" points="9.434 .375 15.344 6.926 15.344 7.094 9.281 .375" clip-path="url(#XMLID_9_)"/><polygon fill="#3D4C5E" points="9.586 .375 15.344 6.754 15.344 6.926 9.434 .375" clip-path="url(#XMLID_9_)"/><polygon fill="#3C4B5D" points="9.742 .375 15.344 6.586 15.344 6.754 9.586 .375" clip-path="url(#XMLID_9_)"/><polygon fill="#3C4B5D" points="9.895 .375 15.344 6.414 15.344 6.586 9.742 .375" clip-path="url(#XMLID_9_)"/><polygon fill="#3C4B5D" points="10.047 .375 15.344 6.242 15.344 6.414 9.895 .375" clip-path="url(#XMLID_9_)"/><polygon fill="#3B4A5C" points="10.203 .375 15.344 6.07 15.344 6.242 10.047 .375" clip-path="url(#XMLID_9_)"/><polygon fill="#3B4A5C" points="10.355 .375 15.344 5.898 15.344 6.07 10.203 .375" clip-path="url(#XMLID_9_)"/><polygon fill="#3A495C" points="10.512 .375 15.344 5.73 15.344 5.898 10.355 .375" clip-path="url(#XMLID_9_)"/><polygon fill="#3A495B" points="15.344 5.559 10.664 .375 10.512 .375 15.344 5.73" clip-path="url(#XMLID_9_)"/><polygon fill="#39495B" points="10.82 .375 15.344 5.391 15.344 5.559 10.664 .375" clip-path="url(#XMLID_9_)"/><polygon fill="#38495B" points="10.973 .375 15.344 5.219 15.344 5.391 10.82 .375" clip-path="url(#XMLID_9_)"/><polygon fill="#38485B" points="11.125 .375 15.344 5.047 15.344 5.219 10.973 .375" clip-path="url(#XMLID_9_)"/><polygon fill="#38485A" points="11.281 .375 15.344 4.875 15.344 5.047 11.125 .375" clip-path="url(#XMLID_9_)"/><polygon fill="#37485A" points="11.434 .375 15.344 4.707 15.344 4.875 11.281 .375" clip-path="url(#XMLID_9_)"/><polygon fill="#38475A" points="11.59 .375 15.344 4.535 15.344 4.707 11.434 .375" clip-path="url(#XMLID_9_)"/><polygon fill="#37475A" points="15.344 4.363 11.742 .375 11.59 .375 15.344 4.535" clip-path="url(#XMLID_9_)"/><polygon fill="#374659" points="11.898 .375 15.344 4.195 15.344 4.363 11.742 .375" clip-path="url(#XMLID_9_)"/><polygon fill="#364659" points="12.051 .375 15.344 4.023 15.344 4.195 11.898 .375" clip-path="url(#XMLID_9_)"/><polygon fill="#364659" points="12.203 .375 15.344 3.852 15.344 4.023 12.051 .375" clip-path="url(#XMLID_9_)"/><polygon fill="#364659" points="12.359 .375 15.344 3.68 15.344 3.852 12.203 .375" clip-path="url(#XMLID_9_)"/><polygon fill="#354659" points="12.512 .375 15.344 3.512 15.344 3.68 12.359 .375" clip-path="url(#XMLID_9_)"/><polygon fill="#354659" points="12.668 .375 15.344 3.344 15.344 3.512 12.512 .375" clip-path="url(#XMLID_9_)"/><polygon fill="#354658" points="12.82 .375 15.344 3.172 15.344 3.344 12.668 .375" clip-path="url(#XMLID_9_)"/><polygon fill="#344558" points="12.977 .375 15.344 3 15.344 3.172 12.82 .375" clip-path="url(#XMLID_9_)"/><polygon fill="#344558" points="13.129 .375 15.344 2.828 15.344 3 12.977 .375" clip-path="url(#XMLID_9_)"/><polygon fill="#344558" points="13.281 .375 15.344 2.656 15.344 2.828 13.129 .375" clip-path="url(#XMLID_9_)"/><polygon fill="#344558" points="13.438 .375 15.344 2.488 15.344 2.656 13.281 .375" clip-path="url(#XMLID_9_)"/><polygon fill="#344558" points="15.344 2.488 13.438 .375 15.344 .375" clip-path="url(#XMLID_9_)"/></g><path fill="#AEADAE" d="M14.969,7.858c0,3.92-3.189,7.109-7.109,7.109S0.75,11.778,0.75,7.858S3.939,0.75,7.859,0.75	S14.969,3.938,14.969,7.858z M7.859,0C3.525,0,0,3.525,0,7.858c0,4.334,3.525,7.859,7.859,7.859s7.859-3.525,7.859-7.859	C15.719,3.525,12.193,0,7.859,0z"/><path fill="#FFF" d="M5.208,4.142v7.601H4.163V6.341H2.414V5.582c0.484-0.011,1.716-0.044,1.991-1.44H5.208z"/><path fill="#FFF" d="M10.455,11.819c-0.627,0-1.562-0.144-2.211-1.199C7.76,9.817,7.683,8.783,7.683,7.958	c0-0.495,0.022-0.968,0.11-1.43c0.341-1.87,1.518-2.563,2.739-2.563c0.429,0,0.857,0.089,1.231,0.275	c1.122,0.605,1.485,1.947,1.485,3.575C13.249,8.541,13.249,11.819,10.455,11.819z M12.182,7.771c0-0.814-0.044-2.959-1.683-2.959	c-0.297,0-0.594,0.088-0.825,0.242C8.948,5.549,8.75,6.649,8.75,7.925c0,0.804,0.044,3.025,1.727,3.025	C12.028,10.95,12.182,9.091,12.182,7.771z"/></svg>