<svg xmlns="http://www.w3.org/2000/svg" xmlns:xlink="http://www.w3.org/1999/xlink" width="17" height="17" enable-background="new -.75 -.758 17 17" version="1.1" viewBox="-0.75 -0.758 17 17" xml:space="preserve"><g><defs><circle id="XMLID_1_" cx="7.86" cy="7.858" r="7.485"/></defs><clipPath id="XMLID_5_"><use xlink:href="#XMLID_1_"/></clipPath><polygon fill="#CBD2D8" points=".375 10.969 4.871 15.344 .375 15.344" clip-path="url(#XMLID_5_)"/><polygon fill="#CBD2D8" points=".375 10.82 5.023 15.344 4.871 15.344 .375 10.969" clip-path="url(#XMLID_5_)"/><polygon fill="#C9D0D5" points=".375 10.668 5.18 15.344 5.023 15.344 .375 10.82" clip-path="url(#XMLID_5_)"/><polygon fill="#C6CDD3" points=".375 10.52 5.328 15.344 5.18 15.344 .375 10.668" clip-path="url(#XMLID_5_)"/><polygon fill="#C5CCD2" points=".375 10.371 5.484 15.344 5.328 15.344 .375 10.52" clip-path="url(#XMLID_5_)"/><polygon fill="#C3C9D0" points=".375 10.223 5.637 15.344 5.484 15.344 .375 10.371" clip-path="url(#XMLID_5_)"/><polygon fill="#C1C8CE" points="5.789 15.344 .375 10.074 .375 10.223 5.637 15.344" clip-path="url(#XMLID_5_)"/><polygon fill="#BFC5CC" points=".375 9.926 5.945 15.344 5.789 15.344 .375 10.074" clip-path="url(#XMLID_5_)"/><polygon fill="#BEC4CB" points=".375 9.773 6.098 15.344 5.945 15.344 .375 9.926" clip-path="url(#XMLID_5_)"/><polygon fill="#BBC2C9" points=".375 9.625 6.25 15.344 6.098 15.344 .375 9.773" clip-path="url(#XMLID_5_)"/><polygon fill="#BAC0C8" points=".375 9.477 6.402 15.344 6.25 15.344 .375 9.625" clip-path="url(#XMLID_5_)"/><polygon fill="#B7BEC6" points=".375 9.328 6.559 15.344 6.402 15.344 .375 9.477" clip-path="url(#XMLID_5_)"/><polygon fill="#B6BDC5" points="6.711 15.344 .375 9.18 .375 9.328 6.559 15.344" clip-path="url(#XMLID_5_)"/><polygon fill="#B5BBC3" points=".375 9.031 6.863 15.344 6.711 15.344 .375 9.18" clip-path="url(#XMLID_5_)"/><polygon fill="#B3BAC2" points=".375 8.879 7.016 15.344 6.863 15.344 .375 9.031" clip-path="url(#XMLID_5_)"/><polygon fill="#B1B7C0" points=".375 8.73 7.172 15.344 7.016 15.344 .375 8.879" clip-path="url(#XMLID_5_)"/><polygon fill="#B0B6BF" points=".375 8.582 7.324 15.344 7.172 15.344 .375 8.73" clip-path="url(#XMLID_5_)"/><polygon fill="#AEB5BE" points=".375 8.434 7.477 15.344 7.324 15.344 .375 8.582" clip-path="url(#XMLID_5_)"/><polygon fill="#ADB3BC" points="7.629 15.344 .375 8.281 .375 8.434 7.477 15.344" clip-path="url(#XMLID_5_)"/><polygon fill="#ABB2BC" points=".375 8.133 7.781 15.344 7.629 15.344 .375 8.281" clip-path="url(#XMLID_5_)"/><polygon fill="#AAB0BA" points=".375 7.984 7.938 15.344 7.781 15.344 .375 8.133" clip-path="url(#XMLID_5_)"/><polygon fill="#A8AEB8" points="8.09 15.344 .375 7.836 .375 7.984 7.938 15.344" clip-path="url(#XMLID_5_)"/><polygon fill="#A6ADB7" points=".375 7.688 8.242 15.344 8.09 15.344 .375 7.836" clip-path="url(#XMLID_5_)"/><polygon fill="#A6ACB6" points=".375 7.539 8.395 15.344 8.242 15.344 .375 7.688" clip-path="url(#XMLID_5_)"/><polygon fill="#A3AAB4" points=".375 7.391 8.551 15.344 8.395 15.344 .375 7.539" clip-path="url(#XMLID_5_)"/><polygon fill="#A2A8B3" points=".375 7.242 8.703 15.344 8.551 15.344 .375 7.391" clip-path="url(#XMLID_5_)"/><polygon fill="#A0A7B1" points=".375 7.094 8.855 15.344 8.703 15.344 .375 7.242" clip-path="url(#XMLID_5_)"/><polygon fill="#9FA6B0" points="9.008 15.344 .375 6.941 .375 7.094 8.855 15.344" clip-path="url(#XMLID_5_)"/><polygon fill="#9EA4AF" points=".375 6.793 9.164 15.344 9.008 15.344 .375 6.941" clip-path="url(#XMLID_5_)"/><polygon fill="#9CA3AE" points=".375 6.645 9.316 15.344 9.164 15.344 .375 6.793" clip-path="url(#XMLID_5_)"/><polygon fill="#9BA1AD" points=".375 6.492 9.469 15.344 9.316 15.344 .375 6.645" clip-path="url(#XMLID_5_)"/><polygon fill="#9AA0AB" points=".375 6.344 9.621 15.344 9.469 15.344 .375 6.492" clip-path="url(#XMLID_5_)"/><polygon fill="#989FAA" points=".375 6.195 9.773 15.344 9.621 15.344 .375 6.344" clip-path="url(#XMLID_5_)"/><polygon fill="#979EAA" points="9.93 15.344 .375 6.047 .375 6.195 9.773 15.344" clip-path="url(#XMLID_5_)"/><polygon fill="#969CA8" points=".375 5.898 10.082 15.344 9.93 15.344 .375 6.047" clip-path="url(#XMLID_5_)"/><polygon fill="#949BA7" points=".375 5.75 10.234 15.344 10.082 15.344 .375 5.898" clip-path="url(#XMLID_5_)"/><polygon fill="#9399A5" points="10.391 15.344 .375 5.598 .375 5.75 10.234 15.344" clip-path="url(#XMLID_5_)"/><polygon fill="#9298A4" points=".375 5.453 10.539 15.344 10.391 15.344 .375 5.598" clip-path="url(#XMLID_5_)"/><polygon fill="#9097A3" points=".375 5.301 10.695 15.344 10.539 15.344 .375 5.453" clip-path="url(#XMLID_5_)"/><polygon fill="#8F95A2" points=".375 5.152 10.848 15.344 10.695 15.344 .375 5.301" clip-path="url(#XMLID_5_)"/><polygon fill="#8E95A1" points=".375 5.004 11 15.344 10.848 15.344 .375 5.152" clip-path="url(#XMLID_5_)"/><polygon fill="#8D93A0" points="11.156 15.344 .375 4.855 .375 5.004 11 15.344" clip-path="url(#XMLID_5_)"/><polygon fill="#8B929F" points=".375 4.703 11.309 15.344 11.156 15.344 .375 4.855" clip-path="url(#XMLID_5_)"/><polygon fill="#8A919E" points=".375 4.555 11.461 15.344 11.309 15.344 .375 4.703" clip-path="url(#XMLID_5_)"/><polygon fill="#898F9D" points="11.617 15.344 .375 4.406 .375 4.555 11.461 15.344" clip-path="url(#XMLID_5_)"/><polygon fill="#878E9B" points=".375 4.258 11.77 15.344 11.617 15.344 .375 4.406" clip-path="url(#XMLID_5_)"/><polygon fill="#878D9B" points=".375 4.109 11.922 15.344 11.77 15.344 .375 4.258" clip-path="url(#XMLID_5_)"/><polygon fill="#858C9A" points=".375 3.961 12.074 15.344 11.922 15.344 .375 4.109" clip-path="url(#XMLID_5_)"/><polygon fill="#848B98" points=".375 3.809 12.227 15.344 12.074 15.344 .375 3.961" clip-path="url(#XMLID_5_)"/><polygon fill="#838A97" points="12.383 15.344 .375 3.66 .375 3.809 12.227 15.344" clip-path="url(#XMLID_5_)"/><polygon fill="#828997" points=".375 3.512 12.535 15.344 12.383 15.344 .375 3.66" clip-path="url(#XMLID_5_)"/><polygon fill="#818895" points=".375 3.363 12.688 15.344 12.535 15.344 .375 3.512" clip-path="url(#XMLID_5_)"/><polygon fill="#808794" points="12.84 15.344 .375 3.211 .375 3.363 12.688 15.344" clip-path="url(#XMLID_5_)"/><polygon fill="#7E8594" points=".375 3.062 12.992 15.344 12.84 15.344 .375 3.211" clip-path="url(#XMLID_5_)"/><polygon fill="#7D8593" points=".375 2.914 13.148 15.344 12.992 15.344 .375 3.062" clip-path="url(#XMLID_5_)"/><polygon fill="#7C8392" points=".375 2.766 13.301 15.344 13.148 15.344 .375 2.914" clip-path="url(#XMLID_5_)"/><polygon fill="#7B8290" points=".375 2.617 13.453 15.344 13.301 15.344 .375 2.766" clip-path="url(#XMLID_5_)"/><polygon fill="#7A8190" points="13.605 15.344 .375 2.469 .375 2.617 13.453 15.344" clip-path="url(#XMLID_5_)"/><polygon fill="#79808F" points=".375 2.32 13.762 15.344 13.605 15.344 .375 2.469" clip-path="url(#XMLID_5_)"/><polygon fill="#787F8D" points=".375 2.172 13.914 15.344 13.762 15.344 .375 2.32" clip-path="url(#XMLID_5_)"/><polygon fill="#777E8D" points=".375 2.023 14.066 15.344 13.914 15.344 .375 2.172" clip-path="url(#XMLID_5_)"/><polygon fill="#767D8C" points=".375 1.871 14.219 15.344 14.066 15.344 .375 2.023" clip-path="url(#XMLID_5_)"/><polygon fill="#767C8B" points="14.375 15.344 .375 1.723 .375 1.871 14.219 15.344" clip-path="url(#XMLID_5_)"/><polygon fill="#747B8A" points=".375 1.574 14.527 15.344 14.375 15.344 .375 1.723" clip-path="url(#XMLID_5_)"/><polygon fill="#737A89" points="14.68 15.344 .375 1.422 .375 1.574 14.527 15.344" clip-path="url(#XMLID_5_)"/><polygon fill="#727989" points=".375 1.273 14.832 15.344 14.68 15.344 .375 1.422" clip-path="url(#XMLID_5_)"/><polygon fill="#717888" points=".375 1.125 14.93 15.289 14.875 15.344 14.832 15.344 .375 1.273" clip-path="url(#XMLID_5_)"/><polygon fill="#707786" points=".375 .977 15.004 15.211 14.93 15.289 .375 1.125" clip-path="url(#XMLID_5_)"/><polygon fill="#6F7686" points=".375 .855 .391 .844 15.078 15.133 15.004 15.211 .375 .977" clip-path="url(#XMLID_5_)"/><rect width=".108" height="20.491" x="7.718" y="-2.297" fill="#6D7585" clip-path="url(#XMLID_5_)" transform="matrix(-0.6887 0.725 -0.725 -0.6887 18.8873 7.7899)"/><rect width=".108" height="20.494" x="7.792" y="-2.374" fill="#6D7584" clip-path="url(#XMLID_5_)" transform="matrix(-0.6887 0.725 -0.725 -0.6887 18.9574 7.6075)"/><rect width=".105" height="20.494" x="7.867" y="-2.45" fill="#6C7383" clip-path="url(#XMLID_5_)" transform="matrix(-0.7071 0.7071 -0.7071 -0.7071 19.0334 7.7099)"/><polygon fill="#6B7383" points=".613 .613 .688 .535 15.344 14.797 15.344 14.859 15.301 14.906" clip-path="url(#XMLID_5_)"/><polygon fill="#6A7281" points=".688 .535 .762 .461 15.344 14.648 15.344 14.797" clip-path="url(#XMLID_5_)"/><polygon fill="#697181" points=".762 .461 .836 .383 15.344 14.5 15.344 14.648" clip-path="url(#XMLID_5_)"/><polygon fill="#697080" points=".836 .383 .844 .375 .984 .375 15.344 14.352 15.344 14.5" clip-path="url(#XMLID_5_)"/><polygon fill="#686F7F" points="1.137 .375 15.344 14.199 15.344 14.352 .984 .375" clip-path="url(#XMLID_5_)"/><polygon fill="#676E7E" points="1.289 .375 15.344 14.051 15.344 14.199 1.137 .375" clip-path="url(#XMLID_5_)"/><polygon fill="#656D7D" points="1.441 .375 15.344 13.902 15.344 14.051 1.289 .375" clip-path="url(#XMLID_5_)"/><polygon fill="#646C7D" points="1.598 .375 15.344 13.75 15.344 13.902 1.441 .375" clip-path="url(#XMLID_5_)"/><polygon fill="#646C7C" points="1.75 .375 15.344 13.602 15.344 13.75 1.598 .375" clip-path="url(#XMLID_5_)"/><polygon fill="#636B7C" points="1.902 .375 15.344 13.453 15.344 13.602 1.75 .375" clip-path="url(#XMLID_5_)"/><polygon fill="#626B7B" points="2.055 .375 15.344 13.305 15.344 13.453 1.902 .375" clip-path="url(#XMLID_5_)"/><polygon fill="#616A7A" points="2.211 .375 15.344 13.156 15.344 13.305 2.055 .375" clip-path="url(#XMLID_5_)"/><polygon fill="#606979" points="2.363 .375 15.344 13.008 15.344 13.156 2.211 .375" clip-path="url(#XMLID_5_)"/><polygon fill="#5F6878" points="2.516 .375 15.344 12.859 15.344 13.008 2.363 .375" clip-path="url(#XMLID_5_)"/><polygon fill="#5F6878" points="2.668 .375 15.344 12.711 15.344 12.859 2.516 .375" clip-path="url(#XMLID_5_)"/><polygon fill="#5E6777" points="2.82 .375 15.344 12.562 15.344 12.711 2.668 .375" clip-path="url(#XMLID_5_)"/><polygon fill="#5D6676" points="15.344 12.41 2.977 .375 2.82 .375 15.344 12.562" clip-path="url(#XMLID_5_)"/><polygon fill="#5C6576" points="3.129 .375 15.344 12.262 15.344 12.41 2.977 .375" clip-path="url(#XMLID_5_)"/><polygon fill="#5B6475" points="3.281 .375 15.344 12.113 15.344 12.262 3.129 .375" clip-path="url(#XMLID_5_)"/><polygon fill="#5B6475" points="3.434 .375 15.344 11.965 15.344 12.113 3.281 .375" clip-path="url(#XMLID_5_)"/><polygon fill="#5A6373" points="15.344 11.812 3.59 .375 3.434 .375 15.344 11.965" clip-path="url(#XMLID_5_)"/><polygon fill="#596273" points="3.742 .375 15.344 11.664 15.344 11.812 3.59 .375" clip-path="url(#XMLID_5_)"/><polygon fill="#586172" points="3.895 .375 15.344 11.516 15.344 11.664 3.742 .375" clip-path="url(#XMLID_5_)"/><polygon fill="#576172" points="4.047 .375 15.344 11.367 15.344 11.516 3.895 .375" clip-path="url(#XMLID_5_)"/><polygon fill="#566071" points="4.203 .375 15.344 11.219 15.344 11.367 4.047 .375" clip-path="url(#XMLID_5_)"/><polygon fill="#566070" points="4.355 .375 15.344 11.07 15.344 11.219 4.203 .375" clip-path="url(#XMLID_5_)"/><polygon fill="#555F70" points="4.508 .375 15.344 10.918 15.344 11.07 4.355 .375" clip-path="url(#XMLID_5_)"/><polygon fill="#545E6F" points="15.344 10.77 4.66 .375 4.508 .375 15.344 10.918" clip-path="url(#XMLID_5_)"/><polygon fill="#535E6F" points="4.812 .375 15.344 10.621 15.344 10.77 4.66 .375" clip-path="url(#XMLID_5_)"/><polygon fill="#535D6E" points="15.344 10.473 4.969 .375 4.812 .375 15.344 10.621" clip-path="url(#XMLID_5_)"/><polygon fill="#525C6D" points="15.344 10.324 5.121 .375 4.969 .375 15.344 10.473" clip-path="url(#XMLID_5_)"/><polygon fill="#515C6D" points="5.273 .375 15.344 10.172 15.344 10.324 5.121 .375" clip-path="url(#XMLID_5_)"/><polygon fill="#505B6C" points="5.43 .375 15.344 10.023 15.344 10.172 5.273 .375" clip-path="url(#XMLID_5_)"/><polygon fill="#505B6C" points="5.578 .375 15.344 9.875 15.344 10.023 5.43 .375" clip-path="url(#XMLID_5_)"/><polygon fill="#505A6B" points="5.734 .375 15.344 9.727 15.344 9.875 5.578 .375" clip-path="url(#XMLID_5_)"/><polygon fill="#4F596A" points="5.887 .375 15.344 9.578 15.344 9.727 5.734 .375" clip-path="url(#XMLID_5_)"/><polygon fill="#4E596A" points="6.039 .375 15.344 9.43 15.344 9.578 5.887 .375" clip-path="url(#XMLID_5_)"/><polygon fill="#4D5869" points="6.195 .375 15.344 9.281 15.344 9.43 6.039 .375" clip-path="url(#XMLID_5_)"/><polygon fill="#4C5869" points="6.348 .375 15.344 9.129 15.344 9.281 6.195 .375" clip-path="url(#XMLID_5_)"/><polygon fill="#4C5768" points="6.5 .375 15.344 8.98 15.344 9.129 6.348 .375" clip-path="url(#XMLID_5_)"/><polygon fill="#4B5768" points="6.652 .375 15.344 8.832 15.344 8.98 6.5 .375" clip-path="url(#XMLID_5_)"/><polygon fill="#4B5667" points="6.805 .375 15.344 8.684 15.344 8.832 6.652 .375" clip-path="url(#XMLID_5_)"/><polygon fill="#4A5567" points="15.344 8.531 6.961 .375 6.805 .375 15.344 8.684" clip-path="url(#XMLID_5_)"/><polygon fill="#495566" points="7.113 .375 15.344 8.383 15.344 8.531 6.961 .375" clip-path="url(#XMLID_5_)"/><polygon fill="#485566" points="7.266 .375 15.344 8.234 15.344 8.383 7.113 .375" clip-path="url(#XMLID_5_)"/><polygon fill="#485466" points="15.344 8.086 7.422 .375 7.266 .375 15.344 8.234" clip-path="url(#XMLID_5_)"/><polygon fill="#475365" points="7.574 .375 15.344 7.938 15.344 8.086 7.422 .375" clip-path="url(#XMLID_5_)"/><polygon fill="#475365" points="15.344 7.789 7.727 .375 7.574 .375 15.344 7.938" clip-path="url(#XMLID_5_)"/><polygon fill="#465264" points="15.344 7.641 7.879 .375 7.727 .375 15.344 7.789" clip-path="url(#XMLID_5_)"/><polygon fill="#455264" points="8.031 .375 15.344 7.492 15.344 7.641 7.879 .375" clip-path="url(#XMLID_5_)"/><polygon fill="#445263" points="15.344 7.34 8.188 .375 8.031 .375 15.344 7.492" clip-path="url(#XMLID_5_)"/><polygon fill="#445163" points="8.34 .375 15.344 7.191 15.344 7.34 8.188 .375" clip-path="url(#XMLID_5_)"/><polygon fill="#445062" points="8.492 .375 15.344 7.043 15.344 7.191 8.34 .375" clip-path="url(#XMLID_5_)"/><polygon fill="#425062" points="8.645 .375 15.344 6.895 15.344 7.043 8.492 .375" clip-path="url(#XMLID_5_)"/><polygon fill="#425062" points="8.801 .375 15.344 6.742 15.344 6.895 8.645 .375" clip-path="url(#XMLID_5_)"/><polygon fill="#424F61" points="8.953 .375 15.344 6.594 15.344 6.742 8.801 .375" clip-path="url(#XMLID_5_)"/><polygon fill="#414F61" points="9.105 .375 15.344 6.445 15.344 6.594 8.953 .375" clip-path="url(#XMLID_5_)"/><polygon fill="#404E60" points="9.258 .375 15.344 6.297 15.344 6.445 9.105 .375" clip-path="url(#XMLID_5_)"/><polygon fill="#3F4E60" points="9.414 .375 15.344 6.148 15.344 6.297 9.258 .375" clip-path="url(#XMLID_5_)"/><polygon fill="#3F4D60" points="9.566 .375 15.344 6 15.344 6.148 9.414 .375" clip-path="url(#XMLID_5_)"/><polygon fill="#3F4D5F" points="9.719 .375 15.344 5.848 15.344 6 9.566 .375" clip-path="url(#XMLID_5_)"/><polygon fill="#3E4D5F" points="9.871 .375 15.344 5.699 15.344 5.848 9.719 .375" clip-path="url(#XMLID_5_)"/><polygon fill="#3E4C5E" points="10.023 .375 15.344 5.551 15.344 5.699 9.871 .375" clip-path="url(#XMLID_5_)"/><polygon fill="#3D4C5E" points="10.18 .375 15.344 5.402 15.344 5.551 10.023 .375" clip-path="url(#XMLID_5_)"/><polygon fill="#3D4C5E" points="10.332 .375 15.344 5.254 15.344 5.402 10.18 .375" clip-path="url(#XMLID_5_)"/><polygon fill="#3C4B5D" points="10.484 .375 15.344 5.102 15.344 5.254 10.332 .375" clip-path="url(#XMLID_5_)"/><polygon fill="#3C4B5D" points="10.641 .375 15.344 4.953 15.344 5.102 10.484 .375" clip-path="url(#XMLID_5_)"/><polygon fill="#3C4B5D" points="10.789 .375 15.344 4.805 15.344 4.953 10.641 .375" clip-path="url(#XMLID_5_)"/><polygon fill="#3B4A5C" points="10.945 .375 15.344 4.656 15.344 4.805 10.789 .375" clip-path="url(#XMLID_5_)"/><polygon fill="#3B4A5C" points="15.344 4.508 11.098 .375 10.945 .375 15.344 4.656" clip-path="url(#XMLID_5_)"/><polygon fill="#3A495C" points="15.344 4.359 11.25 .375 11.098 .375 15.344 4.508" clip-path="url(#XMLID_5_)"/><polygon fill="#3A495B" points="11.406 .375 15.344 4.211 15.344 4.359 11.25 .375" clip-path="url(#XMLID_5_)"/><polygon fill="#39495B" points="11.559 .375 15.344 4.059 15.344 4.211 11.406 .375" clip-path="url(#XMLID_5_)"/><polygon fill="#38495B" points="11.711 .375 15.344 3.91 15.344 4.059 11.559 .375" clip-path="url(#XMLID_5_)"/><polygon fill="#38485B" points="11.863 .375 15.344 3.762 15.344 3.91 11.711 .375" clip-path="url(#XMLID_5_)"/><polygon fill="#38485A" points="15.344 3.613 12.016 .375 11.863 .375 15.344 3.762" clip-path="url(#XMLID_5_)"/><polygon fill="#37485A" points="12.172 .375 15.344 3.461 15.344 3.613 12.016 .375" clip-path="url(#XMLID_5_)"/><polygon fill="#38475A" points="12.324 .375 15.344 3.312 15.344 3.461 12.172 .375" clip-path="url(#XMLID_5_)"/><polygon fill="#37475A" points="12.477 .375 15.344 3.164 15.344 3.312 12.324 .375" clip-path="url(#XMLID_5_)"/><polygon fill="#374659" points="12.633 .375 15.344 3.016 15.344 3.164 12.477 .375" clip-path="url(#XMLID_5_)"/><polygon fill="#364659" points="12.785 .375 15.344 2.867 15.344 3.016 12.633 .375" clip-path="url(#XMLID_5_)"/><polygon fill="#364659" points="15.344 2.719 12.938 .375 12.785 .375 15.344 2.867" clip-path="url(#XMLID_5_)"/><polygon fill="#364659" points="13.09 .375 15.344 2.57 15.344 2.719 12.938 .375" clip-path="url(#XMLID_5_)"/><polygon fill="#354659" points="13.242 .375 15.344 2.422 15.344 2.57 13.09 .375" clip-path="url(#XMLID_5_)"/><polygon fill="#354659" points="13.398 .375 15.344 2.27 15.344 2.422 13.242 .375" clip-path="url(#XMLID_5_)"/><polygon fill="#354658" points="13.551 .375 15.344 2.121 15.344 2.27 13.398 .375" clip-path="url(#XMLID_5_)"/><polygon fill="#344558" points="13.703 .375 15.344 1.973 15.344 2.121 13.551 .375" clip-path="url(#XMLID_5_)"/><polygon fill="#344558" points="13.855 .375 15.344 1.824 15.344 1.973 13.703 .375" clip-path="url(#XMLID_5_)"/><polygon fill="#344558" points="15.344 1.672 14.012 .375 13.855 .375 15.344 1.824" clip-path="url(#XMLID_5_)"/><polygon fill="#344558" points="14.164 .375 15.344 1.523 15.344 1.672 14.012 .375" clip-path="url(#XMLID_5_)"/><polygon fill="#344558" points="15.344 1.523 14.164 .375 15.344 .375" clip-path="url(#XMLID_5_)"/></g><path fill="#AEADAE" d="M14.97,7.858c0,3.92-3.189,7.109-7.109,7.109c-3.921,0-7.11-3.189-7.11-7.109S3.939,0.75,7.86,0.75	C11.78,0.75,14.97,3.938,14.97,7.858z M7.86,0C3.526,0,0,3.525,0,7.858c0,4.334,3.526,7.859,7.86,7.859s7.859-3.525,7.859-7.859	C15.72,3.525,12.194,0,7.86,0z"/><path fill="#FFF" d="M5.208,4.142v7.601H4.163V6.341H2.414V5.582c0.484-0.011,1.716-0.044,1.991-1.44H5.208z"/><path fill="#FFF" d="M12.896,4.152v0.946H9.465L9.146,7.122c0.474-0.341,0.936-0.483,1.529-0.483c1.606,0,2.53,1.21,2.53,2.573	c0,1.606-1.166,2.662-2.75,2.662c-0.627,0-1.298-0.187-1.738-0.55c-0.715-0.572-0.803-1.43-0.836-1.793l1.045-0.066	c0.011,0.165,0.033,0.43,0.154,0.683c0.23,0.517,0.748,0.813,1.408,0.813c1.177,0,1.661-0.924,1.661-1.737	c0-0.913-0.595-1.694-1.684-1.694c-0.891,0-1.309,0.473-1.551,0.759L8.046,8.244l0.583-4.092H12.896z"/></svg>