<svg xmlns="http://www.w3.org/2000/svg" xmlns:xlink="http://www.w3.org/1999/xlink" width="17" height="17" enable-background="new -.75 -.758 17 17" version="1.1" viewBox="-0.75 -0.758 17 17" xml:space="preserve"><g><defs><circle id="XMLID_6_" cx="7.86" cy="7.858" r="7.485"/></defs><clipPath id="XMLID_9_"><use xlink:href="#XMLID_6_"/></clipPath><polygon fill="#CBD2D8" points=".375 12.297 3.578 15.344 .375 15.344" clip-path="url(#XMLID_9_)"/><polygon fill="#CBD2D8" points=".375 12.133 3.75 15.344 3.578 15.344 .375 12.297" clip-path="url(#XMLID_9_)"/><polygon fill="#C9D0D5" points=".375 11.973 3.918 15.344 3.75 15.344 .375 12.133" clip-path="url(#XMLID_9_)"/><polygon fill="#C6CDD3" points=".375 11.809 4.09 15.344 3.918 15.344 .375 11.973" clip-path="url(#XMLID_9_)"/><polygon fill="#C5CCD2" points=".375 11.648 4.258 15.344 4.09 15.344 .375 11.809" clip-path="url(#XMLID_9_)"/><polygon fill="#C3C9D0" points=".375 11.488 4.43 15.344 4.258 15.344 .375 11.648" clip-path="url(#XMLID_9_)"/><polygon fill="#C1C8CE" points=".375 11.324 4.598 15.344 4.43 15.344 .375 11.488" clip-path="url(#XMLID_9_)"/><polygon fill="#BFC5CC" points=".375 11.164 4.77 15.344 4.598 15.344 .375 11.324" clip-path="url(#XMLID_9_)"/><polygon fill="#BEC4CB" points=".375 11.004 4.938 15.344 4.77 15.344 .375 11.164" clip-path="url(#XMLID_9_)"/><polygon fill="#BBC2C9" points=".375 10.84 5.109 15.344 4.938 15.344 .375 11.004" clip-path="url(#XMLID_9_)"/><polygon fill="#BAC0C8" points=".375 10.68 5.281 15.344 5.109 15.344 .375 10.84" clip-path="url(#XMLID_9_)"/><polygon fill="#B7BEC6" points="5.449 15.344 .375 10.516 .375 10.68 5.281 15.344" clip-path="url(#XMLID_9_)"/><polygon fill="#B6BDC5" points=".375 10.355 5.617 15.344 5.449 15.344 .375 10.516" clip-path="url(#XMLID_9_)"/><polygon fill="#B5BBC3" points=".375 10.195 5.789 15.344 5.617 15.344 .375 10.355" clip-path="url(#XMLID_9_)"/><polygon fill="#B3BAC2" points=".375 10.031 5.957 15.344 5.789 15.344 .375 10.195" clip-path="url(#XMLID_9_)"/><polygon fill="#B1B7C0" points=".375 9.871 6.129 15.344 5.957 15.344 .375 10.031" clip-path="url(#XMLID_9_)"/><polygon fill="#B0B6BF" points="6.297 15.344 .375 9.707 .375 9.871 6.129 15.344" clip-path="url(#XMLID_9_)"/><polygon fill="#AEB5BE" points="6.469 15.344 .375 9.547 .375 9.707 6.297 15.344" clip-path="url(#XMLID_9_)"/><polygon fill="#ADB3BC" points=".375 9.387 6.641 15.344 6.469 15.344 .375 9.547" clip-path="url(#XMLID_9_)"/><polygon fill="#ABB2BC" points=".375 9.223 6.809 15.344 6.641 15.344 .375 9.387" clip-path="url(#XMLID_9_)"/><polygon fill="#AAB0BA" points=".375 9.062 6.977 15.344 6.809 15.344 .375 9.223" clip-path="url(#XMLID_9_)"/><polygon fill="#A8AEB8" points=".375 8.898 7.148 15.344 6.977 15.344 .375 9.062" clip-path="url(#XMLID_9_)"/><polygon fill="#A6ADB7" points=".375 8.738 7.32 15.344 7.148 15.344 .375 8.898" clip-path="url(#XMLID_9_)"/><polygon fill="#A6ACB6" points=".375 8.578 7.488 15.344 7.32 15.344 .375 8.738" clip-path="url(#XMLID_9_)"/><polygon fill="#A3AAB4" points=".375 8.414 7.656 15.344 7.488 15.344 .375 8.578" clip-path="url(#XMLID_9_)"/><polygon fill="#A2A8B3" points=".375 8.254 7.828 15.344 7.656 15.344 .375 8.414" clip-path="url(#XMLID_9_)"/><polygon fill="#A0A7B1" points=".375 8.09 8 15.344 7.828 15.344 .375 8.254" clip-path="url(#XMLID_9_)"/><polygon fill="#9FA6B0" points=".375 7.93 8.168 15.344 8 15.344 .375 8.09" clip-path="url(#XMLID_9_)"/><polygon fill="#9EA4AF" points=".375 7.77 8.336 15.344 8.168 15.344 .375 7.93" clip-path="url(#XMLID_9_)"/><polygon fill="#9CA3AE" points="8.508 15.344 .375 7.605 .375 7.77 8.336 15.344" clip-path="url(#XMLID_9_)"/><polygon fill="#9BA1AD" points=".375 7.445 8.68 15.344 8.508 15.344 .375 7.605" clip-path="url(#XMLID_9_)"/><polygon fill="#9AA0AB" points=".375 7.281 8.848 15.344 8.68 15.344 .375 7.445" clip-path="url(#XMLID_9_)"/><polygon fill="#989FAA" points=".375 7.121 9.02 15.344 8.848 15.344 .375 7.281" clip-path="url(#XMLID_9_)"/><polygon fill="#979EAA" points="9.188 15.344 .375 6.961 .375 7.121 9.02 15.344" clip-path="url(#XMLID_9_)"/><polygon fill="#969CA8" points=".375 6.797 9.359 15.344 9.188 15.344 .375 6.961" clip-path="url(#XMLID_9_)"/><polygon fill="#949BA7" points=".375 6.637 9.527 15.344 9.359 15.344 .375 6.797" clip-path="url(#XMLID_9_)"/><polygon fill="#9399A5" points=".375 6.473 9.699 15.344 9.527 15.344 .375 6.637" clip-path="url(#XMLID_9_)"/><polygon fill="#9298A4" points=".375 6.312 9.867 15.344 9.699 15.344 .375 6.473" clip-path="url(#XMLID_9_)"/><polygon fill="#9097A3" points=".375 6.152 10.039 15.344 9.867 15.344 .375 6.312" clip-path="url(#XMLID_9_)"/><polygon fill="#8F95A2" points=".375 5.988 10.207 15.344 10.039 15.344 .375 6.152" clip-path="url(#XMLID_9_)"/><polygon fill="#8E95A1" points=".375 5.828 10.379 15.344 10.207 15.344 .375 5.988" clip-path="url(#XMLID_9_)"/><polygon fill="#8D93A0" points=".375 5.664 10.547 15.344 10.379 15.344 .375 5.828" clip-path="url(#XMLID_9_)"/><polygon fill="#8B929F" points=".375 5.504 10.719 15.344 10.547 15.344 .375 5.664" clip-path="url(#XMLID_9_)"/><polygon fill="#8A919E" points=".375 5.344 10.887 15.344 10.719 15.344 .375 5.504" clip-path="url(#XMLID_9_)"/><polygon fill="#898F9D" points="11.059 15.344 .375 5.18 .375 5.344 10.887 15.344" clip-path="url(#XMLID_9_)"/><polygon fill="#878E9B" points=".375 5.02 11.227 15.344 11.059 15.344 .375 5.18" clip-path="url(#XMLID_9_)"/><polygon fill="#878D9B" points=".375 4.859 11.398 15.344 11.227 15.344 .375 5.02" clip-path="url(#XMLID_9_)"/><polygon fill="#858C9A" points=".375 4.695 11.57 15.344 11.398 15.344 .375 4.859" clip-path="url(#XMLID_9_)"/><polygon fill="#848B98" points=".375 4.535 11.738 15.344 11.57 15.344 .375 4.695" clip-path="url(#XMLID_9_)"/><polygon fill="#838A97" points=".375 4.375 11.906 15.344 11.738 15.344 .375 4.535" clip-path="url(#XMLID_9_)"/><polygon fill="#828997" points="12.078 15.344 .375 4.211 .375 4.375 11.906 15.344" clip-path="url(#XMLID_9_)"/><polygon fill="#818895" points=".375 4.051 12.25 15.344 12.078 15.344 .375 4.211" clip-path="url(#XMLID_9_)"/><polygon fill="#808794" points=".375 3.887 12.418 15.344 12.25 15.344 .375 4.051" clip-path="url(#XMLID_9_)"/><polygon fill="#7E8594" points="12.586 15.344 .375 3.727 .375 3.887 12.418 15.344" clip-path="url(#XMLID_9_)"/><polygon fill="#7D8593" points=".375 3.562 12.758 15.344 12.586 15.344 .375 3.727" clip-path="url(#XMLID_9_)"/><polygon fill="#7C8392" points="12.93 15.344 .375 3.402 .375 3.562 12.758 15.344" clip-path="url(#XMLID_9_)"/><polygon fill="#7B8290" points=".375 3.242 13.098 15.344 12.93 15.344 .375 3.402" clip-path="url(#XMLID_9_)"/><polygon fill="#7A8190" points=".375 3.078 13.27 15.344 13.098 15.344 .375 3.242" clip-path="url(#XMLID_9_)"/><polygon fill="#79808F" points=".375 2.918 13.438 15.344 13.27 15.344 .375 3.078" clip-path="url(#XMLID_9_)"/><polygon fill="#787F8D" points="13.609 15.344 .375 2.758 .375 2.918 13.438 15.344" clip-path="url(#XMLID_9_)"/><polygon fill="#777E8D" points=".375 2.594 13.777 15.344 13.609 15.344 .375 2.758" clip-path="url(#XMLID_9_)"/><polygon fill="#767D8C" points="13.945 15.344 .375 2.434 .375 2.594 13.777 15.344" clip-path="url(#XMLID_9_)"/><polygon fill="#767C8B" points=".375 2.27 14.117 15.344 13.945 15.344 .375 2.434" clip-path="url(#XMLID_9_)"/><polygon fill="#747B8A" points=".375 2.109 14.289 15.344 14.117 15.344 .375 2.27" clip-path="url(#XMLID_9_)"/><polygon fill="#737A89" points=".375 1.945 14.457 15.344 14.289 15.344 .375 2.109" clip-path="url(#XMLID_9_)"/><polygon fill="#727989" points=".375 1.785 14.629 15.344 14.457 15.344 .375 1.945" clip-path="url(#XMLID_9_)"/><polygon fill="#717888" points=".375 1.625 14.797 15.344 14.629 15.344 .375 1.785" clip-path="url(#XMLID_9_)"/><polygon fill="#707786" points=".375 1.461 14.941 15.316 14.914 15.344 14.797 15.344 .375 1.625" clip-path="url(#XMLID_9_)"/><polygon fill="#6F7686" points=".375 1.301 15.023 15.234 14.941 15.316 .375 1.461" clip-path="url(#XMLID_9_)"/><polygon fill="#6D7585" points=".375 1.141 15.102 15.148 15.023 15.234 .375 1.301" clip-path="url(#XMLID_9_)"/><polygon fill="#6D7584" points=".375 .977 15.184 15.062 15.102 15.148 .375 1.141" clip-path="url(#XMLID_9_)"/><polygon fill="#6C7383" points=".375 .824 .379 .82 15.266 14.977 15.184 15.062 .375 .977" clip-path="url(#XMLID_9_)"/><rect width=".119" height="20.54" x="7.802" y="-2.415" fill="#6B7383" clip-path="url(#XMLID_9_)" transform="matrix(-0.6905 0.7234 -0.7234 -0.6905 18.9717 7.5929)"/><polygon fill="#6A7281" points=".461 .734 .539 .648 15.344 14.73 15.344 14.891" clip-path="url(#XMLID_9_)"/><polygon fill="#697181" points=".539 .648 .621 .562 15.344 14.57 15.344 14.73" clip-path="url(#XMLID_9_)"/><polygon fill="#697080" points=".621 .562 .703 .48 15.344 14.406 15.344 14.57" clip-path="url(#XMLID_9_)"/><polygon fill="#686F7F" points=".703 .48 .781 .395 15.344 14.246 15.344 14.406" clip-path="url(#XMLID_9_)"/><polygon fill="#676E7E" points=".781 .395 .801 .375 .934 .375 15.344 14.086 15.344 14.246" clip-path="url(#XMLID_9_)"/><polygon fill="#656D7D" points="15.344 13.922 1.102 .375 .934 .375 15.344 14.086" clip-path="url(#XMLID_9_)"/><polygon fill="#646C7D" points="1.273 .375 15.344 13.762 15.344 13.922 1.102 .375" clip-path="url(#XMLID_9_)"/><polygon fill="#646C7C" points="1.441 .375 15.344 13.602 15.344 13.762 1.273 .375" clip-path="url(#XMLID_9_)"/><polygon fill="#636B7C" points="15.344 13.438 1.609 .375 1.441 .375 15.344 13.602" clip-path="url(#XMLID_9_)"/><polygon fill="#626B7B" points="1.781 .375 15.344 13.277 15.344 13.438 1.609 .375" clip-path="url(#XMLID_9_)"/><polygon fill="#616A7A" points="1.953 .375 15.344 13.113 15.344 13.277 1.781 .375" clip-path="url(#XMLID_9_)"/><polygon fill="#606979" points="2.121 .375 15.344 12.953 15.344 13.113 1.953 .375" clip-path="url(#XMLID_9_)"/><polygon fill="#5F6878" points="2.293 .375 15.344 12.789 15.344 12.953 2.121 .375" clip-path="url(#XMLID_9_)"/><polygon fill="#5F6878" points="2.461 .375 15.344 12.629 15.344 12.789 2.293 .375" clip-path="url(#XMLID_9_)"/><polygon fill="#5E6777" points="2.633 .375 15.344 12.469 15.344 12.629 2.461 .375" clip-path="url(#XMLID_9_)"/><polygon fill="#5D6676" points="15.344 12.305 2.801 .375 2.633 .375 15.344 12.469" clip-path="url(#XMLID_9_)"/><polygon fill="#5C6576" points="2.973 .375 15.344 12.145 15.344 12.305 2.801 .375" clip-path="url(#XMLID_9_)"/><polygon fill="#5B6475" points="3.141 .375 15.344 11.984 15.344 12.145 2.973 .375" clip-path="url(#XMLID_9_)"/><polygon fill="#5B6475" points="3.312 .375 15.344 11.82 15.344 11.984 3.141 .375" clip-path="url(#XMLID_9_)"/><polygon fill="#5A6373" points="3.48 .375 15.344 11.66 15.344 11.82 3.312 .375" clip-path="url(#XMLID_9_)"/><polygon fill="#596273" points="3.652 .375 15.344 11.496 15.344 11.66 3.48 .375" clip-path="url(#XMLID_9_)"/><polygon fill="#586172" points="3.82 .375 15.344 11.336 15.344 11.496 3.652 .375" clip-path="url(#XMLID_9_)"/><polygon fill="#576172" points="3.992 .375 15.344 11.172 15.344 11.336 3.82 .375" clip-path="url(#XMLID_9_)"/><polygon fill="#566071" points="4.164 .375 15.344 11.012 15.344 11.172 3.992 .375" clip-path="url(#XMLID_9_)"/><polygon fill="#566070" points="4.332 .375 15.344 10.852 15.344 11.012 4.164 .375" clip-path="url(#XMLID_9_)"/><polygon fill="#555F70" points="4.5 .375 15.344 10.688 15.344 10.852 4.332 .375" clip-path="url(#XMLID_9_)"/><polygon fill="#545E6F" points="4.672 .375 15.344 10.527 15.344 10.688 4.5 .375" clip-path="url(#XMLID_9_)"/><polygon fill="#535E6F" points="4.844 .375 15.344 10.367 15.344 10.527 4.672 .375" clip-path="url(#XMLID_9_)"/><polygon fill="#535D6E" points="5.012 .375 15.344 10.203 15.344 10.367 4.844 .375" clip-path="url(#XMLID_9_)"/><polygon fill="#525C6D" points="5.18 .375 15.344 10.043 15.344 10.203 5.012 .375" clip-path="url(#XMLID_9_)"/><polygon fill="#515C6D" points="5.352 .375 15.344 9.879 15.344 10.043 5.18 .375" clip-path="url(#XMLID_9_)"/><polygon fill="#505B6C" points="5.523 .375 15.344 9.719 15.344 9.879 5.352 .375" clip-path="url(#XMLID_9_)"/><polygon fill="#505B6C" points="15.344 9.559 5.691 .375 5.523 .375 15.344 9.719" clip-path="url(#XMLID_9_)"/><polygon fill="#505A6B" points="5.859 .375 15.344 9.395 15.344 9.559 5.691 .375" clip-path="url(#XMLID_9_)"/><polygon fill="#4F596A" points="6.031 .375 15.344 9.234 15.344 9.395 5.859 .375" clip-path="url(#XMLID_9_)"/><polygon fill="#4E596A" points="15.344 9.07 6.203 .375 6.031 .375 15.344 9.234" clip-path="url(#XMLID_9_)"/><polygon fill="#4D5869" points="6.371 .375 15.344 8.91 15.344 9.07 6.203 .375" clip-path="url(#XMLID_9_)"/><polygon fill="#4C5869" points="6.543 .375 15.344 8.75 15.344 8.91 6.371 .375" clip-path="url(#XMLID_9_)"/><polygon fill="#4C5768" points="6.711 .375 15.344 8.586 15.344 8.75 6.543 .375" clip-path="url(#XMLID_9_)"/><polygon fill="#4B5768" points="6.883 .375 15.344 8.426 15.344 8.586 6.711 .375" clip-path="url(#XMLID_9_)"/><polygon fill="#4B5667" points="7.051 .375 15.344 8.262 15.344 8.426 6.883 .375" clip-path="url(#XMLID_9_)"/><polygon fill="#4A5567" points="7.223 .375 15.344 8.102 15.344 8.262 7.051 .375" clip-path="url(#XMLID_9_)"/><polygon fill="#495566" points="7.391 .375 15.344 7.941 15.344 8.102 7.223 .375" clip-path="url(#XMLID_9_)"/><polygon fill="#485566" points="7.562 .375 15.344 7.777 15.344 7.941 7.391 .375" clip-path="url(#XMLID_9_)"/><polygon fill="#485466" points="7.73 .375 15.344 7.617 15.344 7.777 7.562 .375" clip-path="url(#XMLID_9_)"/><polygon fill="#475365" points="15.344 7.453 7.902 .375 7.73 .375 15.344 7.617" clip-path="url(#XMLID_9_)"/><polygon fill="#475365" points="8.07 .375 15.344 7.293 15.344 7.453 7.902 .375" clip-path="url(#XMLID_9_)"/><polygon fill="#465264" points="8.242 .375 15.344 7.133 15.344 7.293 8.07 .375" clip-path="url(#XMLID_9_)"/><polygon fill="#455264" points="8.41 .375 15.344 6.969 15.344 7.133 8.242 .375" clip-path="url(#XMLID_9_)"/><polygon fill="#445263" points="8.582 .375 15.344 6.809 15.344 6.969 8.41 .375" clip-path="url(#XMLID_9_)"/><polygon fill="#445163" points="8.75 .375 15.344 6.648 15.344 6.809 8.582 .375" clip-path="url(#XMLID_9_)"/><polygon fill="#445062" points="15.344 6.484 8.922 .375 8.75 .375 15.344 6.648" clip-path="url(#XMLID_9_)"/><polygon fill="#425062" points="9.09 .375 15.344 6.324 15.344 6.484 8.922 .375" clip-path="url(#XMLID_9_)"/><polygon fill="#425062" points="15.344 6.16 9.262 .375 9.09 .375 15.344 6.324" clip-path="url(#XMLID_9_)"/><polygon fill="#424F61" points="9.43 .375 15.344 6 15.344 6.16 9.262 .375" clip-path="url(#XMLID_9_)"/><polygon fill="#414F61" points="9.602 .375 15.344 5.84 15.344 6 9.43 .375" clip-path="url(#XMLID_9_)"/><polygon fill="#404E60" points="9.773 .375 15.344 5.676 15.344 5.84 9.602 .375" clip-path="url(#XMLID_9_)"/><polygon fill="#3F4E60" points="15.344 5.516 9.941 .375 9.773 .375 15.344 5.676" clip-path="url(#XMLID_9_)"/><polygon fill="#3F4D60" points="10.109 .375 15.344 5.352 15.344 5.516 9.941 .375" clip-path="url(#XMLID_9_)"/><polygon fill="#3F4D5F" points="15.344 5.191 10.281 .375 10.109 .375 15.344 5.352" clip-path="url(#XMLID_9_)"/><polygon fill="#3E4D5F" points="10.453 .375 15.344 5.031 15.344 5.191 10.281 .375" clip-path="url(#XMLID_9_)"/><polygon fill="#3E4C5E" points="10.621 .375 15.344 4.867 15.344 5.031 10.453 .375" clip-path="url(#XMLID_9_)"/><polygon fill="#3D4C5E" points="10.789 .375 15.344 4.707 15.344 4.867 10.621 .375" clip-path="url(#XMLID_9_)"/><polygon fill="#3D4C5E" points="15.344 4.543 10.961 .375 10.789 .375 15.344 4.707" clip-path="url(#XMLID_9_)"/><polygon fill="#3C4B5D" points="11.133 .375 15.344 4.383 15.344 4.543 10.961 .375" clip-path="url(#XMLID_9_)"/><polygon fill="#3C4B5D" points="15.344 4.223 11.301 .375 11.133 .375 15.344 4.383" clip-path="url(#XMLID_9_)"/><polygon fill="#3C4B5D" points="11.473 .375 15.344 4.059 15.344 4.223 11.301 .375" clip-path="url(#XMLID_9_)"/><polygon fill="#3B4A5C" points="11.641 .375 15.344 3.898 15.344 4.059 11.473 .375" clip-path="url(#XMLID_9_)"/><polygon fill="#3B4A5C" points="11.812 .375 15.344 3.734 15.344 3.898 11.641 .375" clip-path="url(#XMLID_9_)"/><polygon fill="#3A495C" points="11.98 .375 15.344 3.574 15.344 3.734 11.812 .375" clip-path="url(#XMLID_9_)"/><polygon fill="#3A495B" points="12.152 .375 15.344 3.414 15.344 3.574 11.98 .375" clip-path="url(#XMLID_9_)"/><polygon fill="#39495B" points="15.344 3.25 12.32 .375 12.152 .375 15.344 3.414" clip-path="url(#XMLID_9_)"/><polygon fill="#38495B" points="12.492 .375 15.344 3.09 15.344 3.25 12.32 .375" clip-path="url(#XMLID_9_)"/><polygon fill="#38485B" points="12.66 .375 15.344 2.93 15.344 3.09 12.492 .375" clip-path="url(#XMLID_9_)"/><polygon fill="#38485A" points="12.832 .375 15.344 2.766 15.344 2.93 12.66 .375" clip-path="url(#XMLID_9_)"/><polygon fill="#37485A" points="13 .375 15.344 2.605 15.344 2.766 12.832 .375" clip-path="url(#XMLID_9_)"/><polygon fill="#38475A" points="13.172 .375 15.344 2.441 15.344 2.605 13 .375" clip-path="url(#XMLID_9_)"/><polygon fill="#37475A" points="13.34 .375 15.344 2.281 15.344 2.441 13.172 .375" clip-path="url(#XMLID_9_)"/><polygon fill="#374659" points="13.512 .375 15.344 2.117 15.344 2.281 13.34 .375" clip-path="url(#XMLID_9_)"/><polygon fill="#364659" points="13.68 .375 15.344 1.957 15.344 2.117 13.512 .375" clip-path="url(#XMLID_9_)"/><polygon fill="#364659" points="15.344 1.797 13.852 .375 13.68 .375 15.344 1.957" clip-path="url(#XMLID_9_)"/><polygon fill="#364659" points="14.02 .375 15.344 1.633 15.344 1.797 13.852 .375" clip-path="url(#XMLID_9_)"/><polygon fill="#354659" points="14.191 .375 15.344 1.473 15.344 1.633 14.02 .375" clip-path="url(#XMLID_9_)"/><polygon fill="#354659" points="14.359 .375 15.344 1.312 15.344 1.473 14.191 .375" clip-path="url(#XMLID_9_)"/><polygon fill="#354658" points="15.344 1.148 14.531 .375 14.359 .375 15.344 1.312" clip-path="url(#XMLID_9_)"/><polygon fill="#344558" points="14.703 .375 15.344 .988 15.344 1.148 14.531 .375" clip-path="url(#XMLID_9_)"/><polygon fill="#344558" points="15.344 .824 14.871 .375 14.703 .375 15.344 .988" clip-path="url(#XMLID_9_)"/><polygon fill="#344558" points="15.039 .375 15.344 .664 15.344 .824 14.871 .375" clip-path="url(#XMLID_9_)"/><polygon fill="#344558" points="15.344 .5 15.211 .375 15.039 .375 15.344 .664" clip-path="url(#XMLID_9_)"/><polygon fill="#344558" points="15.344 .5 15.211 .375 15.344 .375" clip-path="url(#XMLID_9_)"/></g><path fill="#AEADAE" d="M14.97,7.858c0,3.92-3.189,7.109-7.11,7.109c-3.92,0-7.109-3.189-7.109-7.109	c0-3.919,3.189-7.108,7.109-7.108C11.78,0.75,14.97,3.939,14.97,7.858z M7.859,0C3.525,0,0,3.525,0,7.858s3.525,7.859,7.859,7.859	s7.86-3.526,7.86-7.859S12.193,0,7.859,0z"/><path fill="#FFF" d="M10.306,3.952v0.946H6.873L6.555,6.922C7.027,6.581,7.49,6.438,8.084,6.438c1.605,0,2.529,1.21,2.529,2.574	c0,1.606-1.166,2.662-2.75,2.662c-0.627,0-1.298-0.188-1.738-0.55C5.41,10.552,5.322,9.693,5.289,9.331l1.045-0.065	C6.346,9.43,6.367,9.693,6.488,9.947c0.231,0.517,0.748,0.814,1.408,0.814c1.178,0,1.661-0.925,1.661-1.738	c0-0.914-0.594-1.694-1.683-1.694c-0.891,0-1.31,0.473-1.551,0.759L5.455,8.044l0.582-4.092H10.306z"/></svg>