<svg xmlns="http://www.w3.org/2000/svg" xmlns:xlink="http://www.w3.org/1999/xlink" width="17" height="16" enable-background="new -.75 -.157 17 16" version="1.1" viewBox="-0.75 -0.157 17 16" xml:space="preserve"><g><defs><circle id="XMLID_6_" cx="7.86" cy="7.859" r="7.485"/></defs><clipPath id="XMLID_9_"><use xlink:href="#XMLID_6_"/></clipPath><polygon fill="#CBD2D8" points=".375 10.991 3.77 15.343 .375 15.343" clip-path="url(#XMLID_9_)"/><polygon fill="#CBD2D8" points=".375 10.819 3.906 15.343 3.77 15.343 .375 10.991" clip-path="url(#XMLID_9_)"/><polygon fill="#C9D0D5" points=".375 10.644 4.043 15.343 3.906 15.343 .375 10.819" clip-path="url(#XMLID_9_)"/><polygon fill="#C6CDD3" points=".375 10.468 4.18 15.343 4.043 15.343 .375 10.644" clip-path="url(#XMLID_9_)"/><polygon fill="#C5CCD2" points=".375 10.292 4.316 15.343 4.18 15.343 .375 10.468" clip-path="url(#XMLID_9_)"/><polygon fill="#C3C9D0" points=".375 10.116 4.453 15.343 4.316 15.343 .375 10.292" clip-path="url(#XMLID_9_)"/><polygon fill="#C1C8CE" points=".375 9.944 4.59 15.343 4.453 15.343 .375 10.116" clip-path="url(#XMLID_9_)"/><polygon fill="#BFC5CC" points="4.727 15.343 .375 9.769 .375 9.944 4.59 15.343" clip-path="url(#XMLID_9_)"/><polygon fill="#BEC4CB" points=".375 9.593 4.863 15.343 4.727 15.343 .375 9.769" clip-path="url(#XMLID_9_)"/><polygon fill="#BBC2C9" points=".375 9.417 5 15.343 4.863 15.343 .375 9.593" clip-path="url(#XMLID_9_)"/><polygon fill="#BAC0C8" points=".375 9.241 5.137 15.343 5 15.343 .375 9.417" clip-path="url(#XMLID_9_)"/><polygon fill="#B7BEC6" points=".375 9.069 5.273 15.343 5.137 15.343 .375 9.241" clip-path="url(#XMLID_9_)"/><polygon fill="#B6BDC5" points=".375 8.894 5.41 15.343 5.273 15.343 .375 9.069" clip-path="url(#XMLID_9_)"/><polygon fill="#B5BBC3" points=".375 8.718 5.547 15.343 5.41 15.343 .375 8.894" clip-path="url(#XMLID_9_)"/><polygon fill="#B3BAC2" points=".375 8.542 5.684 15.343 5.547 15.343 .375 8.718" clip-path="url(#XMLID_9_)"/><polygon fill="#B1B7C0" points=".375 8.366 5.82 15.343 5.684 15.343 .375 8.542" clip-path="url(#XMLID_9_)"/><polygon fill="#B0B6BF" points="5.957 15.343 .375 8.194 .375 8.366 5.82 15.343" clip-path="url(#XMLID_9_)"/><polygon fill="#AEB5BE" points=".375 8.019 6.094 15.343 5.957 15.343 .375 8.194" clip-path="url(#XMLID_9_)"/><polygon fill="#ADB3BC" points=".375 7.843 6.23 15.343 6.094 15.343 .375 8.019" clip-path="url(#XMLID_9_)"/><polygon fill="#ABB2BC" points="6.367 15.343 .375 7.667 .375 7.843 6.23 15.343" clip-path="url(#XMLID_9_)"/><polygon fill="#AAB0BA" points=".375 7.491 6.5 15.343 6.367 15.343 .375 7.667" clip-path="url(#XMLID_9_)"/><polygon fill="#A8AEB8" points="6.641 15.343 .375 7.319 .375 7.491 6.5 15.343" clip-path="url(#XMLID_9_)"/><polygon fill="#A6ADB7" points=".375 7.144 6.773 15.343 6.641 15.343 .375 7.319" clip-path="url(#XMLID_9_)"/><polygon fill="#A6ACB6" points=".375 6.968 6.914 15.343 6.773 15.343 .375 7.144" clip-path="url(#XMLID_9_)"/><polygon fill="#A3AAB4" points=".375 6.792 7.047 15.343 6.914 15.343 .375 6.968" clip-path="url(#XMLID_9_)"/><polygon fill="#A2A8B3" points="7.188 15.343 .375 6.616 .375 6.792 7.047 15.343" clip-path="url(#XMLID_9_)"/><polygon fill="#A0A7B1" points=".375 6.444 7.32 15.343 7.188 15.343 .375 6.616" clip-path="url(#XMLID_9_)"/><polygon fill="#9FA6B0" points=".375 6.269 7.457 15.343 7.32 15.343 .375 6.444" clip-path="url(#XMLID_9_)"/><polygon fill="#9EA4AF" points=".375 6.093 7.594 15.343 7.457 15.343 .375 6.269" clip-path="url(#XMLID_9_)"/><polygon fill="#9CA3AE" points=".375 5.917 7.73 15.343 7.594 15.343 .375 6.093" clip-path="url(#XMLID_9_)"/><polygon fill="#9BA1AD" points=".375 5.741 7.867 15.343 7.73 15.343 .375 5.917" clip-path="url(#XMLID_9_)"/><polygon fill="#9AA0AB" points=".375 5.569 8.004 15.343 7.867 15.343 .375 5.741" clip-path="url(#XMLID_9_)"/><polygon fill="#989FAA" points="8.141 15.343 .375 5.394 .375 5.569 8.004 15.343" clip-path="url(#XMLID_9_)"/><polygon fill="#979EAA" points=".375 5.218 8.277 15.343 8.141 15.343 .375 5.394" clip-path="url(#XMLID_9_)"/><polygon fill="#969CA8" points=".375 5.042 8.414 15.343 8.277 15.343 .375 5.218" clip-path="url(#XMLID_9_)"/><polygon fill="#949BA7" points=".375 4.866 8.551 15.343 8.414 15.343 .375 5.042" clip-path="url(#XMLID_9_)"/><polygon fill="#9399A5" points=".375 4.694 8.688 15.343 8.551 15.343 .375 4.866" clip-path="url(#XMLID_9_)"/><polygon fill="#9298A4" points=".375 4.519 8.824 15.343 8.688 15.343 .375 4.694" clip-path="url(#XMLID_9_)"/><polygon fill="#9097A3" points="8.961 15.343 .375 4.343 .375 4.519 8.824 15.343" clip-path="url(#XMLID_9_)"/><polygon fill="#8F95A2" points=".375 4.167 9.098 15.343 8.961 15.343 .375 4.343" clip-path="url(#XMLID_9_)"/><polygon fill="#8E95A1" points="9.234 15.343 .375 3.991 .375 4.167 9.098 15.343" clip-path="url(#XMLID_9_)"/><polygon fill="#8D93A0" points="9.371 15.343 .375 3.819 .375 3.991 9.234 15.343" clip-path="url(#XMLID_9_)"/><polygon fill="#8B929F" points=".375 3.644 9.508 15.343 9.371 15.343 .375 3.819" clip-path="url(#XMLID_9_)"/><polygon fill="#8A919E" points="9.645 15.343 .375 3.468 .375 3.644 9.508 15.343" clip-path="url(#XMLID_9_)"/><polygon fill="#898F9D" points="9.781 15.343 .375 3.292 .375 3.468 9.645 15.343" clip-path="url(#XMLID_9_)"/><polygon fill="#878E9B" points=".375 3.116 9.918 15.343 9.781 15.343 .375 3.292" clip-path="url(#XMLID_9_)"/><polygon fill="#878D9B" points=".375 2.944 10.055 15.343 9.918 15.343 .375 3.116" clip-path="url(#XMLID_9_)"/><polygon fill="#858C9A" points="10.191 15.343 .375 2.769 .375 2.944 10.055 15.343" clip-path="url(#XMLID_9_)"/><polygon fill="#848B98" points=".375 2.593 10.328 15.343 10.191 15.343 .375 2.769" clip-path="url(#XMLID_9_)"/><polygon fill="#838A97" points="10.461 15.343 .375 2.417 .375 2.593 10.328 15.343" clip-path="url(#XMLID_9_)"/><polygon fill="#828997" points=".375 2.241 10.602 15.343 10.461 15.343 .375 2.417" clip-path="url(#XMLID_9_)"/><polygon fill="#818895" points=".375 2.069 10.734 15.343 10.602 15.343 .375 2.241" clip-path="url(#XMLID_9_)"/><polygon fill="#808794" points=".375 1.894 10.875 15.343 10.734 15.343 .375 2.069" clip-path="url(#XMLID_9_)"/><polygon fill="#7E8594" points=".375 1.718 11.008 15.343 10.875 15.343 .375 1.894" clip-path="url(#XMLID_9_)"/><polygon fill="#7D8593" points=".375 1.542 11.148 15.343 11.008 15.343 .375 1.718" clip-path="url(#XMLID_9_)"/><polygon fill="#7C8392" points=".375 1.366 11.281 15.343 11.148 15.343 .375 1.542" clip-path="url(#XMLID_9_)"/><polygon fill="#7B8290" points=".375 1.194 11.422 15.343 11.281 15.343 .375 1.366" clip-path="url(#XMLID_9_)"/><polygon fill="#7A8190" points=".375 1.019 11.555 15.343 11.422 15.343 .375 1.194" clip-path="url(#XMLID_9_)"/><polygon fill="#79808F" points="11.695 15.343 .375 .843 .375 1.019 11.555 15.343" clip-path="url(#XMLID_9_)"/><polygon fill="#787F8D" points=".375 .667 11.828 15.343 11.695 15.343 .375 .843" clip-path="url(#XMLID_9_)"/><polygon fill="#777E8D" points=".375 .491 11.969 15.343 11.828 15.343 .375 .667" clip-path="url(#XMLID_9_)"/><polygon fill="#767D8C" points="12.102 15.343 .441 .401 .375 .456 .375 .491 11.969 15.343" clip-path="url(#XMLID_9_)"/><polygon fill="#767C8B" points=".441 .401 .477 .374 .555 .374 12.238 15.343 12.102 15.343" clip-path="url(#XMLID_9_)"/><polygon fill="#747B8A" points=".695 .374 12.375 15.343 12.238 15.343 .555 .374" clip-path="url(#XMLID_9_)"/><polygon fill="#737A89" points=".828 .374 12.512 15.343 12.375 15.343 .695 .374" clip-path="url(#XMLID_9_)"/><polygon fill="#727989" points=".969 .374 12.648 15.343 12.512 15.343 .828 .374" clip-path="url(#XMLID_9_)"/><polygon fill="#717888" points="1.102 .374 12.785 15.343 12.648 15.343 .969 .374" clip-path="url(#XMLID_9_)"/><polygon fill="#707786" points="12.922 15.343 1.238 .374 1.102 .374 12.785 15.343" clip-path="url(#XMLID_9_)"/><polygon fill="#6F7686" points="1.375 .374 13.059 15.343 12.922 15.343 1.238 .374" clip-path="url(#XMLID_9_)"/><polygon fill="#6D7585" points="1.512 .374 13.195 15.343 13.059 15.343 1.375 .374" clip-path="url(#XMLID_9_)"/><polygon fill="#6D7584" points="1.648 .374 13.332 15.343 13.195 15.343 1.512 .374" clip-path="url(#XMLID_9_)"/><polygon fill="#6C7383" points="1.785 .374 13.469 15.343 13.332 15.343 1.648 .374" clip-path="url(#XMLID_9_)"/><polygon fill="#6B7383" points="1.922 .374 13.605 15.343 13.469 15.343 1.785 .374" clip-path="url(#XMLID_9_)"/><polygon fill="#6A7281" points="2.059 .374 13.742 15.343 13.605 15.343 1.922 .374" clip-path="url(#XMLID_9_)"/><polygon fill="#697181" points="2.195 .374 13.879 15.343 13.742 15.343 2.059 .374" clip-path="url(#XMLID_9_)"/><polygon fill="#697080" points="2.332 .374 14.016 15.343 13.879 15.343 2.195 .374" clip-path="url(#XMLID_9_)"/><polygon fill="#686F7F" points="2.469 .374 14.152 15.343 14.016 15.343 2.332 .374" clip-path="url(#XMLID_9_)"/><polygon fill="#676E7E" points="2.605 .374 14.289 15.343 14.152 15.343 2.469 .374" clip-path="url(#XMLID_9_)"/><polygon fill="#656D7D" points="2.742 .374 14.426 15.343 14.289 15.343 2.605 .374" clip-path="url(#XMLID_9_)"/><polygon fill="#646C7D" points="2.879 .374 14.562 15.343 14.426 15.343 2.742 .374" clip-path="url(#XMLID_9_)"/><polygon fill="#646C7C" points="3.016 .374 14.699 15.343 14.562 15.343 2.879 .374" clip-path="url(#XMLID_9_)"/><polygon fill="#636B7C" points="3.152 .374 14.836 15.343 14.699 15.343 3.016 .374" clip-path="url(#XMLID_9_)"/><polygon fill="#626B7B" points="3.289 .374 14.973 15.343 14.836 15.343 3.152 .374" clip-path="url(#XMLID_9_)"/><polygon fill="#616A7A" points="3.426 .374 15.109 15.343 14.973 15.343 3.289 .374" clip-path="url(#XMLID_9_)"/><polygon fill="#606979" points="3.562 .374 15.246 15.343 15.109 15.343 3.426 .374" clip-path="url(#XMLID_9_)"/><polygon fill="#5F6878" points="3.699 .374 15.328 15.276 15.246 15.343 15.246 15.343 3.562 .374" clip-path="url(#XMLID_9_)"/><polygon fill="#5F6878" points="3.836 .374 15.344 15.12 15.344 15.265 15.328 15.276 3.699 .374" clip-path="url(#XMLID_9_)"/><polygon fill="#5E6777" points="3.973 .374 15.344 14.944 15.344 15.12 3.836 .374" clip-path="url(#XMLID_9_)"/><polygon fill="#5D6676" points="4.109 .374 15.344 14.772 15.344 14.944 3.973 .374" clip-path="url(#XMLID_9_)"/><polygon fill="#5C6576" points="4.242 .374 15.344 14.597 15.344 14.772 4.109 .374" clip-path="url(#XMLID_9_)"/><polygon fill="#5B6475" points="4.383 .374 15.344 14.421 15.344 14.597 4.242 .374" clip-path="url(#XMLID_9_)"/><polygon fill="#5B6475" points="4.516 .374 15.344 14.245 15.344 14.421 4.383 .374" clip-path="url(#XMLID_9_)"/><polygon fill="#5A6373" points="4.656 .374 15.344 14.069 15.344 14.245 4.516 .374" clip-path="url(#XMLID_9_)"/><polygon fill="#596273" points="4.789 .374 15.344 13.897 15.344 14.069 4.656 .374" clip-path="url(#XMLID_9_)"/><polygon fill="#586172" points="4.926 .374 15.344 13.722 15.344 13.897 4.789 .374" clip-path="url(#XMLID_9_)"/><polygon fill="#576172" points="5.062 .374 15.344 13.546 15.344 13.722 4.926 .374" clip-path="url(#XMLID_9_)"/><polygon fill="#566071" points="5.199 .374 15.344 13.37 15.344 13.546 5.062 .374" clip-path="url(#XMLID_9_)"/><polygon fill="#566070" points="5.336 .374 15.344 13.194 15.344 13.37 5.199 .374" clip-path="url(#XMLID_9_)"/><polygon fill="#555F70" points="5.473 .374 15.344 13.022 15.344 13.194 5.336 .374" clip-path="url(#XMLID_9_)"/><polygon fill="#545E6F" points="5.609 .374 15.344 12.847 15.344 13.022 5.473 .374" clip-path="url(#XMLID_9_)"/><polygon fill="#535E6F" points="5.746 .374 15.344 12.671 15.344 12.847 5.609 .374" clip-path="url(#XMLID_9_)"/><polygon fill="#535D6E" points="5.883 .374 15.344 12.495 15.344 12.671 5.746 .374" clip-path="url(#XMLID_9_)"/><polygon fill="#525C6D" points="6.02 .374 15.344 12.319 15.344 12.495 5.883 .374" clip-path="url(#XMLID_9_)"/><polygon fill="#515C6D" points="15.344 12.147 6.156 .374 6.02 .374 15.344 12.319" clip-path="url(#XMLID_9_)"/><polygon fill="#505B6C" points="6.293 .374 15.344 11.972 15.344 12.147 6.156 .374" clip-path="url(#XMLID_9_)"/><polygon fill="#505B6C" points="15.344 11.796 6.43 .374 6.293 .374 15.344 11.972" clip-path="url(#XMLID_9_)"/><polygon fill="#505A6B" points="15.344 11.62 6.566 .374 6.43 .374 15.344 11.796" clip-path="url(#XMLID_9_)"/><polygon fill="#4F596A" points="6.703 .374 15.344 11.444 15.344 11.62 6.566 .374" clip-path="url(#XMLID_9_)"/><polygon fill="#4E596A" points="6.84 .374 15.344 11.272 15.344 11.444 6.703 .374" clip-path="url(#XMLID_9_)"/><polygon fill="#4D5869" points="6.977 .374 15.344 11.097 15.344 11.272 6.84 .374" clip-path="url(#XMLID_9_)"/><polygon fill="#4C5869" points="7.113 .374 15.344 10.921 15.344 11.097 6.977 .374" clip-path="url(#XMLID_9_)"/><polygon fill="#4C5768" points="7.25 .374 15.344 10.745 15.344 10.921 7.113 .374" clip-path="url(#XMLID_9_)"/><polygon fill="#4B5768" points="7.387 .374 15.344 10.569 15.344 10.745 7.25 .374" clip-path="url(#XMLID_9_)"/><polygon fill="#4B5667" points="7.523 .374 15.344 10.397 15.344 10.569 7.387 .374" clip-path="url(#XMLID_9_)"/><polygon fill="#4A5567" points="7.66 .374 15.344 10.222 15.344 10.397 7.523 .374" clip-path="url(#XMLID_9_)"/><polygon fill="#495566" points="7.797 .374 15.344 10.046 15.344 10.222 7.66 .374" clip-path="url(#XMLID_9_)"/><polygon fill="#485566" points="7.934 .374 15.344 9.87 15.344 10.046 7.797 .374" clip-path="url(#XMLID_9_)"/><polygon fill="#485466" points="15.344 9.694 8.07 .374 7.934 .374 15.344 9.87" clip-path="url(#XMLID_9_)"/><polygon fill="#475365" points="8.203 .374 15.344 9.522 15.344 9.694 8.07 .374" clip-path="url(#XMLID_9_)"/><polygon fill="#475365" points="15.344 9.347 8.344 .374 8.203 .374 15.344 9.522" clip-path="url(#XMLID_9_)"/><polygon fill="#465264" points="8.477 .374 15.344 9.171 15.344 9.347 8.344 .374" clip-path="url(#XMLID_9_)"/><polygon fill="#455264" points="8.617 .374 15.344 8.995 15.344 9.171 8.477 .374" clip-path="url(#XMLID_9_)"/><polygon fill="#445263" points="15.344 8.819 8.75 .374 8.617 .374 15.344 8.995" clip-path="url(#XMLID_9_)"/><polygon fill="#445163" points="8.891 .374 15.344 8.647 15.344 8.819 8.75 .374" clip-path="url(#XMLID_9_)"/><polygon fill="#445062" points="9.023 .374 15.344 8.472 15.344 8.647 8.891 .374" clip-path="url(#XMLID_9_)"/><polygon fill="#425062" points="9.164 .374 15.344 8.296 15.344 8.472 9.023 .374" clip-path="url(#XMLID_9_)"/><polygon fill="#425062" points="9.297 .374 15.344 8.12 15.344 8.296 9.164 .374" clip-path="url(#XMLID_9_)"/><polygon fill="#424F61" points="9.438 .374 15.344 7.944 15.344 8.12 9.297 .374" clip-path="url(#XMLID_9_)"/><polygon fill="#414F61" points="9.57 .374 15.344 7.772 15.344 7.944 9.438 .374" clip-path="url(#XMLID_9_)"/><polygon fill="#404E60" points="9.711 .374 15.344 7.597 15.344 7.772 9.57 .374" clip-path="url(#XMLID_9_)"/><polygon fill="#3F4E60" points="9.844 .374 15.344 7.421 15.344 7.597 9.711 .374" clip-path="url(#XMLID_9_)"/><polygon fill="#3F4D60" points="15.344 7.245 9.98 .374 9.844 .374 15.344 7.421" clip-path="url(#XMLID_9_)"/><polygon fill="#3F4D5F" points="10.117 .374 15.344 7.069 15.344 7.245 9.98 .374" clip-path="url(#XMLID_9_)"/><polygon fill="#3E4D5F" points="10.254 .374 15.344 6.897 15.344 7.069 10.117 .374" clip-path="url(#XMLID_9_)"/><polygon fill="#3E4C5E" points="15.344 6.722 10.391 .374 10.254 .374 15.344 6.897" clip-path="url(#XMLID_9_)"/><polygon fill="#3D4C5E" points="15.344 6.546 10.527 .374 10.391 .374 15.344 6.722" clip-path="url(#XMLID_9_)"/><polygon fill="#3D4C5E" points="10.664 .374 15.344 6.37 15.344 6.546 10.527 .374" clip-path="url(#XMLID_9_)"/><polygon fill="#3C4B5D" points="10.801 .374 15.344 6.194 15.344 6.37 10.664 .374" clip-path="url(#XMLID_9_)"/><polygon fill="#3C4B5D" points="10.938 .374 15.344 6.022 15.344 6.194 10.801 .374" clip-path="url(#XMLID_9_)"/><polygon fill="#3C4B5D" points="11.074 .374 15.344 5.847 15.344 6.022 10.938 .374" clip-path="url(#XMLID_9_)"/><polygon fill="#3B4A5C" points="11.211 .374 15.344 5.671 15.344 5.847 11.074 .374" clip-path="url(#XMLID_9_)"/><polygon fill="#3B4A5C" points="11.348 .374 15.344 5.495 15.344 5.671 11.211 .374" clip-path="url(#XMLID_9_)"/><polygon fill="#3A495C" points="15.344 5.319 11.484 .374 11.348 .374 15.344 5.495" clip-path="url(#XMLID_9_)"/><polygon fill="#3A495B" points="15.344 5.147 11.621 .374 11.484 .374 15.344 5.319" clip-path="url(#XMLID_9_)"/><polygon fill="#39495B" points="15.344 4.972 11.758 .374 11.621 .374 15.344 5.147" clip-path="url(#XMLID_9_)"/><polygon fill="#38495B" points="11.895 .374 15.344 4.796 15.344 4.972 11.758 .374" clip-path="url(#XMLID_9_)"/><polygon fill="#38485B" points="12.031 .374 15.344 4.62 15.344 4.796 11.895 .374" clip-path="url(#XMLID_9_)"/><polygon fill="#38485A" points="12.168 .374 15.344 4.444 15.344 4.62 12.031 .374" clip-path="url(#XMLID_9_)"/><polygon fill="#37485A" points="12.305 .374 15.344 4.272 15.344 4.444 12.168 .374" clip-path="url(#XMLID_9_)"/><polygon fill="#38475A" points="12.441 .374 15.344 4.097 15.344 4.272 12.305 .374" clip-path="url(#XMLID_9_)"/><polygon fill="#37475A" points="12.578 .374 15.344 3.921 15.344 4.097 12.441 .374" clip-path="url(#XMLID_9_)"/><polygon fill="#374659" points="12.715 .374 15.344 3.745 15.344 3.921 12.578 .374" clip-path="url(#XMLID_9_)"/><polygon fill="#364659" points="12.852 .374 15.344 3.569 15.344 3.745 12.715 .374" clip-path="url(#XMLID_9_)"/><polygon fill="#364659" points="15.344 3.397 12.984 .374 12.852 .374 15.344 3.569" clip-path="url(#XMLID_9_)"/><polygon fill="#364659" points="13.125 .374 15.344 3.222 15.344 3.397 12.984 .374" clip-path="url(#XMLID_9_)"/><polygon fill="#354659" points="13.258 .374 15.344 3.046 15.344 3.222 13.125 .374" clip-path="url(#XMLID_9_)"/><polygon fill="#354659" points="13.398 .374 15.344 2.87 15.344 3.046 13.258 .374" clip-path="url(#XMLID_9_)"/><polygon fill="#354658" points="13.531 .374 15.344 2.694 15.344 2.87 13.398 .374" clip-path="url(#XMLID_9_)"/><polygon fill="#344558" points="13.672 .374 15.344 2.522 15.344 2.694 13.531 .374" clip-path="url(#XMLID_9_)"/><polygon fill="#344558" points="13.805 .374 15.344 2.347 15.344 2.522 13.672 .374" clip-path="url(#XMLID_9_)"/><polygon fill="#344558" points="15.344 2.171 13.945 .374 13.805 .374 15.344 2.347" clip-path="url(#XMLID_9_)"/><polygon fill="#344558" points="14.078 .374 15.344 1.995 15.344 2.171 13.945 .374" clip-path="url(#XMLID_9_)"/><polygon fill="#344558" points="15.344 1.995 14.078 .374 15.344 .374" clip-path="url(#XMLID_9_)"/></g><path fill="#AEADAE" d="M14.97,7.859c0,3.919-3.189,7.108-7.11,7.108c-3.92,0-7.109-3.189-7.109-7.108	c0-3.92,3.189-7.109,7.109-7.109C11.78,0.75,14.97,3.939,14.97,7.859z M7.859,0C3.525,0,0,3.526,0,7.859	c0,4.333,3.525,7.858,7.859,7.858s7.86-3.525,7.86-7.858C15.72,3.526,12.193,0,7.859,0z"/><path fill="#FFF" d="M5.378,4.932V3.931h5.005v0.88c-0.352,0.374-0.858,0.924-1.518,2.134c-0.595,1.078-1.134,2.299-1.431,4.598	H6.291c0.065-0.583,0.197-1.089,0.242-1.31c0.197-0.78,0.429-1.484,0.791-2.276C8.16,6.065,8.92,5.251,9.217,4.932H5.378z"/></svg>