<svg xmlns="http://www.w3.org/2000/svg" xmlns:xlink="http://www.w3.org/1999/xlink" width="17" height="17" enable-background="new -.75 -.558 17 17" version="1.1" viewBox="-0.75 -0.558 17 17" xml:space="preserve"><g><defs><circle id="XMLID_1_" cx="7.86" cy="7.858" r="7.485"/></defs><clipPath id="XMLID_5_"><use xlink:href="#XMLID_1_"/></clipPath><polygon fill="#CBD2D8" points=".375 10.919 4.336 15.341 .375 15.341" clip-path="url(#XMLID_5_)"/><polygon fill="#CBD2D8" points=".375 10.759 4.477 15.341 4.336 15.341 .375 10.919" clip-path="url(#XMLID_5_)"/><polygon fill="#C9D0D5" points=".375 10.599 4.617 15.341 4.477 15.341 .375 10.759" clip-path="url(#XMLID_5_)"/><polygon fill="#C6CDD3" points=".375 10.442 4.762 15.341 4.617 15.341 .375 10.599" clip-path="url(#XMLID_5_)"/><polygon fill="#C5CCD2" points=".375 10.286 4.902 15.341 4.762 15.341 .375 10.442" clip-path="url(#XMLID_5_)"/><polygon fill="#C3C9D0" points="5.043 15.341 .375 10.126 .375 10.286 4.902 15.341" clip-path="url(#XMLID_5_)"/><polygon fill="#C1C8CE" points=".375 9.966 5.184 15.341 5.043 15.341 .375 10.126" clip-path="url(#XMLID_5_)"/><polygon fill="#BFC5CC" points="5.328 15.341 .375 9.81 .375 9.966 5.184 15.341" clip-path="url(#XMLID_5_)"/><polygon fill="#BEC4CB" points=".375 9.653 5.469 15.341 5.328 15.341 .375 9.81" clip-path="url(#XMLID_5_)"/><polygon fill="#BBC2C9" points=".375 9.493 5.609 15.341 5.469 15.341 .375 9.653" clip-path="url(#XMLID_5_)"/><polygon fill="#BAC0C8" points="5.75 15.341 .375 9.333 .375 9.493 5.609 15.341" clip-path="url(#XMLID_5_)"/><polygon fill="#B7BEC6" points=".375 9.177 5.891 15.341 5.75 15.341 .375 9.333" clip-path="url(#XMLID_5_)"/><polygon fill="#B6BDC5" points=".375 9.017 6.035 15.341 5.891 15.341 .375 9.177" clip-path="url(#XMLID_5_)"/><polygon fill="#B5BBC3" points=".375 8.86 6.176 15.341 6.035 15.341 .375 9.017" clip-path="url(#XMLID_5_)"/><polygon fill="#B3BAC2" points="6.32 15.341 .375 8.7 .375 8.86 6.176 15.341" clip-path="url(#XMLID_5_)"/><polygon fill="#B1B7C0" points=".375 8.544 6.461 15.341 6.32 15.341 .375 8.7" clip-path="url(#XMLID_5_)"/><polygon fill="#B0B6BF" points=".375 8.384 6.602 15.341 6.461 15.341 .375 8.544" clip-path="url(#XMLID_5_)"/><polygon fill="#AEB5BE" points="6.742 15.341 .375 8.228 .375 8.384 6.602 15.341" clip-path="url(#XMLID_5_)"/><polygon fill="#ADB3BC" points=".375 8.067 6.883 15.341 6.742 15.341 .375 8.228" clip-path="url(#XMLID_5_)"/><polygon fill="#ABB2BC" points=".375 7.911 7.027 15.341 6.883 15.341 .375 8.067" clip-path="url(#XMLID_5_)"/><polygon fill="#AAB0BA" points=".375 7.751 7.168 15.341 7.027 15.341 .375 7.911" clip-path="url(#XMLID_5_)"/><polygon fill="#A8AEB8" points=".375 7.591 7.309 15.341 7.168 15.341 .375 7.751" clip-path="url(#XMLID_5_)"/><polygon fill="#A6ADB7" points=".375 7.435 7.453 15.341 7.309 15.341 .375 7.591" clip-path="url(#XMLID_5_)"/><polygon fill="#A6ACB6" points=".375 7.278 7.594 15.341 7.453 15.341 .375 7.435" clip-path="url(#XMLID_5_)"/><polygon fill="#A3AAB4" points="7.734 15.341 .375 7.118 .375 7.278 7.594 15.341" clip-path="url(#XMLID_5_)"/><polygon fill="#A2A8B3" points=".375 6.958 7.875 15.341 7.734 15.341 .375 7.118" clip-path="url(#XMLID_5_)"/><polygon fill="#A0A7B1" points=".375 6.802 8.016 15.341 7.875 15.341 .375 6.958" clip-path="url(#XMLID_5_)"/><polygon fill="#9FA6B0" points=".375 6.646 8.16 15.341 8.016 15.341 .375 6.802" clip-path="url(#XMLID_5_)"/><polygon fill="#9EA4AF" points=".375 6.485 8.301 15.341 8.16 15.341 .375 6.646" clip-path="url(#XMLID_5_)"/><polygon fill="#9CA3AE" points=".375 6.325 8.445 15.341 8.301 15.341 .375 6.485" clip-path="url(#XMLID_5_)"/><polygon fill="#9BA1AD" points=".375 6.169 8.586 15.341 8.445 15.341 .375 6.325" clip-path="url(#XMLID_5_)"/><polygon fill="#9AA0AB" points=".375 6.009 8.727 15.341 8.586 15.341 .375 6.169" clip-path="url(#XMLID_5_)"/><polygon fill="#989FAA" points=".375 5.853 8.867 15.341 8.727 15.341 .375 6.009" clip-path="url(#XMLID_5_)"/><polygon fill="#979EAA" points=".375 5.692 9.008 15.341 8.867 15.341 .375 5.853" clip-path="url(#XMLID_5_)"/><polygon fill="#969CA8" points=".375 5.536 9.152 15.341 9.008 15.341 .375 5.692" clip-path="url(#XMLID_5_)"/><polygon fill="#949BA7" points="9.293 15.341 .375 5.376 .375 5.536 9.152 15.341" clip-path="url(#XMLID_5_)"/><polygon fill="#9399A5" points=".375 5.22 9.434 15.341 9.293 15.341 .375 5.376" clip-path="url(#XMLID_5_)"/><polygon fill="#9298A4" points=".375 5.06 9.578 15.341 9.434 15.341 .375 5.22" clip-path="url(#XMLID_5_)"/><polygon fill="#9097A3" points=".375 4.903 9.719 15.341 9.578 15.341 .375 5.06" clip-path="url(#XMLID_5_)"/><polygon fill="#8F95A2" points=".375 4.743 9.859 15.341 9.719 15.341 .375 4.903" clip-path="url(#XMLID_5_)"/><polygon fill="#8E95A1" points=".375 4.587 10 15.341 9.859 15.341 .375 4.743" clip-path="url(#XMLID_5_)"/><polygon fill="#8D93A0" points="10.145 15.341 .375 4.427 .375 4.587 10 15.341" clip-path="url(#XMLID_5_)"/><polygon fill="#8B929F" points=".375 4.271 10.285 15.341 10.145 15.341 .375 4.427" clip-path="url(#XMLID_5_)"/><polygon fill="#8A919E" points=".375 4.11 10.426 15.341 10.285 15.341 .375 4.271" clip-path="url(#XMLID_5_)"/><polygon fill="#898F9D" points=".375 3.95 10.566 15.341 10.426 15.341 .375 4.11" clip-path="url(#XMLID_5_)"/><polygon fill="#878E9B" points=".375 3.794 10.711 15.341 10.566 15.341 .375 3.95" clip-path="url(#XMLID_5_)"/><polygon fill="#878D9B" points=".375 3.634 10.852 15.341 10.711 15.341 .375 3.794" clip-path="url(#XMLID_5_)"/><polygon fill="#858C9A" points="10.992 15.341 .375 3.478 .375 3.634 10.852 15.341" clip-path="url(#XMLID_5_)"/><polygon fill="#848B98" points=".375 3.317 11.133 15.341 10.992 15.341 .375 3.478" clip-path="url(#XMLID_5_)"/><polygon fill="#838A97" points=".375 3.161 11.277 15.341 11.133 15.341 .375 3.317" clip-path="url(#XMLID_5_)"/><polygon fill="#828997" points="11.418 15.341 .375 3.001 .375 3.161 11.277 15.341" clip-path="url(#XMLID_5_)"/><polygon fill="#818895" points=".375 2.845 11.559 15.341 11.418 15.341 .375 3.001" clip-path="url(#XMLID_5_)"/><polygon fill="#808794" points="11.703 15.341 .375 2.685 .375 2.845 11.559 15.341" clip-path="url(#XMLID_5_)"/><polygon fill="#7E8594" points=".375 2.528 11.844 15.341 11.703 15.341 .375 2.685" clip-path="url(#XMLID_5_)"/><polygon fill="#7D8593" points=".375 2.368 11.984 15.341 11.844 15.341 .375 2.528" clip-path="url(#XMLID_5_)"/><polygon fill="#7C8392" points=".375 2.208 12.125 15.341 11.984 15.341 .375 2.368" clip-path="url(#XMLID_5_)"/><polygon fill="#7B8290" points="12.266 15.341 .375 2.052 .375 2.208 12.125 15.341" clip-path="url(#XMLID_5_)"/><polygon fill="#7A8190" points=".375 1.896 12.41 15.341 12.266 15.341 .375 2.052" clip-path="url(#XMLID_5_)"/><polygon fill="#79808F" points="12.551 15.341 .375 1.735 .375 1.896 12.41 15.341" clip-path="url(#XMLID_5_)"/><polygon fill="#787F8D" points=".375 1.575 12.695 15.341 12.551 15.341 .375 1.735" clip-path="url(#XMLID_5_)"/><polygon fill="#777E8D" points=".375 1.419 12.836 15.341 12.695 15.341 .375 1.575" clip-path="url(#XMLID_5_)"/><polygon fill="#767D8C" points=".375 1.263 12.977 15.341 12.836 15.341 .375 1.419" clip-path="url(#XMLID_5_)"/><polygon fill="#767C8B" points=".375 1.103 13.117 15.341 12.977 15.341 .375 1.263" clip-path="url(#XMLID_5_)"/><polygon fill="#747B8A" points=".375 .942 13.258 15.341 13.117 15.341 .375 1.103" clip-path="url(#XMLID_5_)"/><polygon fill="#737A89" points=".375 .786 13.402 15.341 13.258 15.341 .375 .942" clip-path="url(#XMLID_5_)"/><polygon fill="#727989" points="13.543 15.341 .406 .661 .375 .692 .375 .786 13.402 15.341" clip-path="url(#XMLID_5_)"/><polygon fill="#717888" points=".406 .661 .484 .591 13.684 15.341 13.543 15.341" clip-path="url(#XMLID_5_)"/><polygon fill="#707786" points=".484 .591 .562 .521 13.828 15.341 13.684 15.341" clip-path="url(#XMLID_5_)"/><polygon fill="#6F7686" points="13.969 15.341 .641 .45 .562 .521 13.828 15.341" clip-path="url(#XMLID_5_)"/><polygon fill="#6D7585" points=".641 .45 .723 .38 14.109 15.341 13.969 15.341" clip-path="url(#XMLID_5_)"/><polygon fill="#6D7584" points=".723 .38 .727 .376 .859 .376 14.25 15.341 14.109 15.341" clip-path="url(#XMLID_5_)"/><polygon fill="#6C7383" points="1 .376 14.395 15.341 14.25 15.341 .859 .376" clip-path="url(#XMLID_5_)"/><polygon fill="#6B7383" points="1.141 .376 14.535 15.341 14.395 15.341 1 .376" clip-path="url(#XMLID_5_)"/><polygon fill="#6A7281" points="14.676 15.341 1.281 .376 1.141 .376 14.535 15.341" clip-path="url(#XMLID_5_)"/><polygon fill="#697181" points="1.422 .376 14.816 15.341 14.676 15.341 1.281 .376" clip-path="url(#XMLID_5_)"/><polygon fill="#697080" points="1.566 .376 14.961 15.341 14.816 15.341 1.422 .376" clip-path="url(#XMLID_5_)"/><polygon fill="#686F7F" points="1.707 .376 15.055 15.29 14.996 15.341 14.961 15.341 1.566 .376" clip-path="url(#XMLID_5_)"/><polygon fill="#676E7E" points="1.852 .376 15.133 15.22 15.055 15.29 1.707 .376" clip-path="url(#XMLID_5_)"/><polygon fill="#656D7D" points="1.992 .376 15.211 15.149 15.133 15.22 1.852 .376" clip-path="url(#XMLID_5_)"/><polygon fill="#646C7D" points="15.211 15.149 15.289 15.079 2.133 .376 1.992 .376" clip-path="url(#XMLID_5_)"/><polygon fill="#646C7C" points="2.273 .376 15.344 14.981 15.344 15.028 15.289 15.079 2.133 .376" clip-path="url(#XMLID_5_)"/><polygon fill="#636B7C" points="2.414 .376 15.344 14.825 15.344 14.981 2.273 .376" clip-path="url(#XMLID_5_)"/><polygon fill="#626B7B" points="2.559 .376 15.344 14.665 15.344 14.825 2.414 .376" clip-path="url(#XMLID_5_)"/><polygon fill="#616A7A" points="2.699 .376 15.344 14.505 15.344 14.665 2.559 .376" clip-path="url(#XMLID_5_)"/><polygon fill="#606979" points="2.84 .376 15.344 14.349 15.344 14.505 2.699 .376" clip-path="url(#XMLID_5_)"/><polygon fill="#5F6878" points="2.984 .376 15.344 14.192 15.344 14.349 2.84 .376" clip-path="url(#XMLID_5_)"/><polygon fill="#5F6878" points="3.125 .376 15.344 14.032 15.344 14.192 2.984 .376" clip-path="url(#XMLID_5_)"/><polygon fill="#5E6777" points="3.266 .376 15.344 13.872 15.344 14.032 3.125 .376" clip-path="url(#XMLID_5_)"/><polygon fill="#5D6676" points="3.406 .376 15.344 13.716 15.344 13.872 3.266 .376" clip-path="url(#XMLID_5_)"/><polygon fill="#5C6576" points="15.344 13.556 3.551 .376 3.406 .376 15.344 13.716" clip-path="url(#XMLID_5_)"/><polygon fill="#5B6475" points="3.691 .376 15.344 13.399 15.344 13.556 3.551 .376" clip-path="url(#XMLID_5_)"/><polygon fill="#5B6475" points="15.344 13.239 3.832 .376 3.691 .376 15.344 13.399" clip-path="url(#XMLID_5_)"/><polygon fill="#5A6373" points="3.973 .376 15.344 13.083 15.344 13.239 3.832 .376" clip-path="url(#XMLID_5_)"/><polygon fill="#596273" points="4.117 .376 15.344 12.923 15.344 13.083 3.973 .376" clip-path="url(#XMLID_5_)"/><polygon fill="#586172" points="4.258 .376 15.344 12.767 15.344 12.923 4.117 .376" clip-path="url(#XMLID_5_)"/><polygon fill="#576172" points="4.398 .376 15.344 12.606 15.344 12.767 4.258 .376" clip-path="url(#XMLID_5_)"/><polygon fill="#566071" points="4.539 .376 15.344 12.45 15.344 12.606 4.398 .376" clip-path="url(#XMLID_5_)"/><polygon fill="#566070" points="15.344 12.29 4.68 .376 4.539 .376 15.344 12.45" clip-path="url(#XMLID_5_)"/><polygon fill="#555F70" points="4.824 .376 15.344 12.13 15.344 12.29 4.68 .376" clip-path="url(#XMLID_5_)"/><polygon fill="#545E6F" points="4.965 .376 15.344 11.974 15.344 12.13 4.824 .376" clip-path="url(#XMLID_5_)"/><polygon fill="#535E6F" points="5.109 .376 15.344 11.817 15.344 11.974 4.965 .376" clip-path="url(#XMLID_5_)"/><polygon fill="#535D6E" points="5.25 .376 15.344 11.657 15.344 11.817 5.109 .376" clip-path="url(#XMLID_5_)"/><polygon fill="#525C6D" points="5.391 .376 15.344 11.497 15.344 11.657 5.25 .376" clip-path="url(#XMLID_5_)"/><polygon fill="#515C6D" points="5.531 .376 15.344 11.341 15.344 11.497 5.391 .376" clip-path="url(#XMLID_5_)"/><polygon fill="#505B6C" points="5.672 .376 15.344 11.181 15.344 11.341 5.531 .376" clip-path="url(#XMLID_5_)"/><polygon fill="#505B6C" points="5.816 .376 15.344 11.021 15.344 11.181 5.672 .376" clip-path="url(#XMLID_5_)"/><polygon fill="#505A6B" points="5.957 .376 15.344 10.864 15.344 11.021 5.816 .376" clip-path="url(#XMLID_5_)"/><polygon fill="#4F596A" points="6.102 .376 15.344 10.708 15.344 10.864 5.957 .376" clip-path="url(#XMLID_5_)"/><polygon fill="#4E596A" points="6.242 .376 15.344 10.548 15.344 10.708 6.102 .376" clip-path="url(#XMLID_5_)"/><polygon fill="#4D5869" points="15.344 10.392 6.383 .376 6.242 .376 15.344 10.548" clip-path="url(#XMLID_5_)"/><polygon fill="#4C5869" points="6.523 .376 15.344 10.231 15.344 10.392 6.383 .376" clip-path="url(#XMLID_5_)"/><polygon fill="#4C5768" points="6.664 .376 15.344 10.075 15.344 10.231 6.523 .376" clip-path="url(#XMLID_5_)"/><polygon fill="#4B5768" points="15.344 9.915 6.809 .376 6.664 .376 15.344 10.075" clip-path="url(#XMLID_5_)"/><polygon fill="#4B5667" points="6.949 .376 15.344 9.759 15.344 9.915 6.809 .376" clip-path="url(#XMLID_5_)"/><polygon fill="#4A5567" points="15.344 9.599 7.09 .376 6.949 .376 15.344 9.759" clip-path="url(#XMLID_5_)"/><polygon fill="#495566" points="7.234 .376 15.344 9.442 15.344 9.599 7.09 .376" clip-path="url(#XMLID_5_)"/><polygon fill="#485566" points="15.344 9.282 7.375 .376 7.234 .376 15.344 9.442" clip-path="url(#XMLID_5_)"/><polygon fill="#485466" points="7.516 .376 15.344 9.122 15.344 9.282 7.375 .376" clip-path="url(#XMLID_5_)"/><polygon fill="#475365" points="7.656 .376 15.344 8.966 15.344 9.122 7.516 .376" clip-path="url(#XMLID_5_)"/><polygon fill="#475365" points="15.344 8.81 7.801 .376 7.656 .376 15.344 8.966" clip-path="url(#XMLID_5_)"/><polygon fill="#465264" points="7.941 .376 15.344 8.649 15.344 8.81 7.801 .376" clip-path="url(#XMLID_5_)"/><polygon fill="#455264" points="8.082 .376 15.344 8.489 15.344 8.649 7.941 .376" clip-path="url(#XMLID_5_)"/><polygon fill="#445263" points="8.227 .376 15.344 8.333 15.344 8.489 8.082 .376" clip-path="url(#XMLID_5_)"/><polygon fill="#445163" points="15.344 8.173 8.367 .376 8.227 .376 15.344 8.333" clip-path="url(#XMLID_5_)"/><polygon fill="#445062" points="8.508 .376 15.344 8.017 15.344 8.173 8.367 .376" clip-path="url(#XMLID_5_)"/><polygon fill="#425062" points="8.648 .376 15.344 7.856 15.344 8.017 8.508 .376" clip-path="url(#XMLID_5_)"/><polygon fill="#425062" points="15.344 7.7 8.789 .376 8.648 .376 15.344 7.856" clip-path="url(#XMLID_5_)"/><polygon fill="#424F61" points="8.934 .376 15.344 7.54 15.344 7.7 8.789 .376" clip-path="url(#XMLID_5_)"/><polygon fill="#414F61" points="9.074 .376 15.344 7.384 15.344 7.54 8.934 .376" clip-path="url(#XMLID_5_)"/><polygon fill="#404E60" points="9.215 .376 15.344 7.224 15.344 7.384 9.074 .376" clip-path="url(#XMLID_5_)"/><polygon fill="#3F4E60" points="9.359 .376 15.344 7.067 15.344 7.224 9.215 .376" clip-path="url(#XMLID_5_)"/><polygon fill="#3F4D60" points="9.5 .376 15.344 6.907 15.344 7.067 9.359 .376" clip-path="url(#XMLID_5_)"/><polygon fill="#3F4D5F" points="9.641 .376 15.344 6.747 15.344 6.907 9.5 .376" clip-path="url(#XMLID_5_)"/><polygon fill="#3E4D5F" points="9.781 .376 15.344 6.591 15.344 6.747 9.641 .376" clip-path="url(#XMLID_5_)"/><polygon fill="#3E4C5E" points="9.926 .376 15.344 6.435 15.344 6.591 9.781 .376" clip-path="url(#XMLID_5_)"/><polygon fill="#3D4C5E" points="10.066 .376 15.344 6.274 15.344 6.435 9.926 .376" clip-path="url(#XMLID_5_)"/><polygon fill="#3D4C5E" points="10.207 .376 15.344 6.114 15.344 6.274 10.066 .376" clip-path="url(#XMLID_5_)"/><polygon fill="#3C4B5D" points="10.352 .376 15.344 5.958 15.344 6.114 10.207 .376" clip-path="url(#XMLID_5_)"/><polygon fill="#3C4B5D" points="10.492 .376 15.344 5.802 15.344 5.958 10.352 .376" clip-path="url(#XMLID_5_)"/><polygon fill="#3C4B5D" points="10.633 .376 15.344 5.642 15.344 5.802 10.492 .376" clip-path="url(#XMLID_5_)"/><polygon fill="#3B4A5C" points="10.773 .376 15.344 5.481 15.344 5.642 10.633 .376" clip-path="url(#XMLID_5_)"/><polygon fill="#3B4A5C" points="15.344 5.325 10.914 .376 10.773 .376 15.344 5.481" clip-path="url(#XMLID_5_)"/><polygon fill="#3A495C" points="11.055 .376 15.344 5.165 15.344 5.325 10.914 .376" clip-path="url(#XMLID_5_)"/><polygon fill="#3A495B" points="15.344 5.009 11.199 .376 11.055 .376 15.344 5.165" clip-path="url(#XMLID_5_)"/><polygon fill="#39495B" points="11.34 .376 15.344 4.849 15.344 5.009 11.199 .376" clip-path="url(#XMLID_5_)"/><polygon fill="#38495B" points="11.484 .376 15.344 4.692 15.344 4.849 11.34 .376" clip-path="url(#XMLID_5_)"/><polygon fill="#38485B" points="15.344 4.532 11.625 .376 11.484 .376 15.344 4.692" clip-path="url(#XMLID_5_)"/><polygon fill="#38485A" points="11.766 .376 15.344 4.376 15.344 4.532 11.625 .376" clip-path="url(#XMLID_5_)"/><polygon fill="#37485A" points="15.344 4.216 11.906 .376 11.766 .376 15.344 4.376" clip-path="url(#XMLID_5_)"/><polygon fill="#38475A" points="12.047 .376 15.344 4.06 15.344 4.216 11.906 .376" clip-path="url(#XMLID_5_)"/><polygon fill="#37475A" points="12.191 .376 15.344 3.899 15.344 4.06 12.047 .376" clip-path="url(#XMLID_5_)"/><polygon fill="#374659" points="15.344 3.739 12.332 .376 12.191 .376 15.344 3.899" clip-path="url(#XMLID_5_)"/><polygon fill="#364659" points="12.477 .376 15.344 3.583 15.344 3.739 12.332 .376" clip-path="url(#XMLID_5_)"/><polygon fill="#364659" points="12.617 .376 15.344 3.427 15.344 3.583 12.477 .376" clip-path="url(#XMLID_5_)"/><polygon fill="#364659" points="12.758 .376 15.344 3.267 15.344 3.427 12.617 .376" clip-path="url(#XMLID_5_)"/><polygon fill="#354659" points="12.898 .376 15.344 3.106 15.344 3.267 12.758 .376" clip-path="url(#XMLID_5_)"/><polygon fill="#354659" points="15.344 2.95 13.039 .376 12.898 .376 15.344 3.106" clip-path="url(#XMLID_5_)"/><polygon fill="#354658" points="13.184 .376 15.344 2.79 15.344 2.95 13.039 .376" clip-path="url(#XMLID_5_)"/><polygon fill="#344558" points="13.324 .376 15.344 2.634 15.344 2.79 13.184 .376" clip-path="url(#XMLID_5_)"/><polygon fill="#344558" points="13.465 .376 15.344 2.474 15.344 2.634 13.324 .376" clip-path="url(#XMLID_5_)"/><polygon fill="#344558" points="13.609 .376 15.344 2.317 15.344 2.474 13.465 .376" clip-path="url(#XMLID_5_)"/><polygon fill="#344558" points="13.75 .376 15.344 2.157 15.344 2.317 13.609 .376" clip-path="url(#XMLID_5_)"/><polygon fill="#344558" points="15.344 2.157 13.75 .376 15.344 .376" clip-path="url(#XMLID_5_)"/></g><path fill="#AEADAE" d="M14.97,7.858c0,3.92-3.189,7.109-7.11,7.109c-3.92,0-7.109-3.189-7.109-7.109S3.939,0.75,7.859,0.75	C11.78,0.75,14.97,3.938,14.97,7.858z M7.859,0C3.525,0,0,3.525,0,7.858c0,4.334,3.525,7.859,7.859,7.859s7.86-3.525,7.86-7.859	C15.72,3.525,12.193,0,7.859,0z"/><path fill="#FFF" d="M6.225,9.442C6.246,9.64,6.279,9.915,6.488,10.2c0.342,0.484,0.825,0.539,1.145,0.539	c1.451,0,1.837-1.596,1.869-2.893C9.326,8.099,8.777,8.892,7.5,8.892c-1.407,0-2.441-0.979-2.441-2.529	c0-1.463,1.012-2.586,2.607-2.586c1.705,0,2.32,1.266,2.519,1.75c0.253,0.67,0.308,1.406,0.308,2.123	c0,0.34-0.021,0.682-0.065,1.021c-0.121,0.814-0.418,1.596-0.902,2.123c-0.692,0.748-1.528,0.814-1.979,0.814	c-0.407,0-1.331-0.033-1.958-0.945C5.268,10.19,5.224,9.728,5.201,9.519L6.225,9.442z M7.644,7.978c0.847,0,1.606-0.57,1.606-1.594	c0-0.924-0.627-1.705-1.606-1.705c-0.858,0-1.551,0.615-1.551,1.627C6.093,7.044,6.478,7.978,7.644,7.978z"/></svg>