<svg xmlns="http://www.w3.org/2000/svg" xmlns:xlink="http://www.w3.org/1999/xlink" id="Layer_1" width="48" height="48" enable-background="new 0 0 48 48" overflow="visible" version="1.1" viewBox="0 0 48 48" xml:space="preserve"><linearGradient id="XMLID_3_" x1="35.753" x2="13.314" y1="33.869" y2="11.43" gradientUnits="userSpaceOnUse"><stop offset=".017" style="stop-color:#4a5d75"/><stop offset=".049" style="stop-color:#42546b"/><stop offset=".124" style="stop-color:#35465a"/><stop offset=".218" style="stop-color:#2b3c4f"/><stop offset=".349" style="stop-color:#263648"/><stop offset=".714" style="stop-color:#243446"/><stop offset=".767" style="stop-color:#27384a"/><stop offset=".818" style="stop-color:#324355"/><stop offset=".867" style="stop-color:#435667"/><stop offset=".915" style="stop-color:#5c7181"/><stop offset=".963" style="stop-color:#7b93a3"/><stop offset=".994" style="stop-color:#94aebd"/></linearGradient><path fill="url(#XMLID_3_)" d="M43.075,19.076c2.035,2.036,2.035,5.337,0,7.37L28.331,41.191c-2.035,2.035-5.336,2.037-7.372,0	L6.217,26.449c-2.038-2.036-2.035-5.337,0-7.372L20.961,4.333c2.034-2.035,5.335-2.036,7.372,0L43.075,19.076z"/><linearGradient id="XMLID_4_" x1="15.259" x2="38.272" y1="13.377" y2="36.39" gradientUnits="userSpaceOnUse"><stop offset=".011" style="stop-color:#f3d99f"/><stop offset=".084" style="stop-color:#e9bb61"/><stop offset=".714" style="stop-color:#e3a835"/><stop offset=".994" style="stop-color:#faf8ed"/></linearGradient><path fill="url(#XMLID_4_)" d="M40.31,19.999c1.527,1.525,1.525,4.002,0,5.528l-12.9,12.899c-1.527,1.526-4.002,1.528-5.529,0	L8.98,25.526c-1.527-1.525-1.527-4.002,0-5.527L21.88,7.098c1.526-1.526,4.002-1.527,5.529-0.001L40.31,19.999z"/><g><path fill="#656565" d="M23.199,23.943l-5.117-0.973l1.37-4.179l4.789,2.379l-0.755-5.259h4.395l-0.723,5.185l4.687-2.305 l1.33,4.213l-5.185,0.903l3.672,3.71l-3.637,2.629l-2.414-4.648l-2.595,4.613l-3.529-2.559L23.199,23.943z"/></g><g><path fill="#FFF" d="M22.037,22.709l-5.117-0.973l1.37-4.179l4.789,2.379l-0.755-5.259h4.395l-0.723,5.185l4.687-2.305 l1.33,4.213l-5.185,0.903l3.672,3.71l-3.637,2.629l-2.414-4.648l-2.595,4.613l-3.529-2.559L22.037,22.709z"/></g></svg>