<svg xmlns="http://www.w3.org/2000/svg" xmlns:xlink="http://www.w3.org/1999/xlink" id="Layer_1" width="48" height="48" enable-background="new 0 0 48 48" overflow="visible" version="1.1" viewBox="0 0 48 48" xml:space="preserve"><linearGradient id="XMLID_5_" x1="63.169" x2="38.669" y1="10.563" y2="-13.937" gradientTransform="matrix(0.7071 -0.7071 0.7071 0.7071 -10.7369 61.7461)" gradientUnits="userSpaceOnUse"><stop offset=".017" style="stop-color:#4a5d75"/><stop offset=".049" style="stop-color:#42546b"/><stop offset=".124" style="stop-color:#35465a"/><stop offset=".218" style="stop-color:#2b3c4f"/><stop offset=".349" style="stop-color:#263648"/><stop offset=".714" style="stop-color:#243446"/><stop offset=".767" style="stop-color:#27384a"/><stop offset=".818" style="stop-color:#324355"/><stop offset=".867" style="stop-color:#435667"/><stop offset=".915" style="stop-color:#5c7181"/><stop offset=".963" style="stop-color:#7b93a3"/><stop offset=".994" style="stop-color:#94aebd"/></linearGradient><path fill="url(#XMLID_5_)" d="M35.623,7.474c3.145,0,5.691,2.549,5.691,5.691v22.766c0,3.143-2.547,5.691-5.691,5.691H12.859	c-3.145,0-5.691-2.549-5.69-5.691L7.168,13.165c0-3.143,2.547-5.691,5.691-5.691H35.623z"/><linearGradient id="XMLID_6_" x1="40.794" x2="65.919" y1="-11.81" y2="13.315" gradientTransform="matrix(0.7071 -0.7071 0.7071 0.7071 -10.7369 61.7461)" gradientUnits="userSpaceOnUse"><stop offset=".011" style="stop-color:#f3d99f"/><stop offset=".084" style="stop-color:#e9bb61"/><stop offset=".714" style="stop-color:#e3a835"/><stop offset=".994" style="stop-color:#faf8ed"/></linearGradient><path fill="url(#XMLID_6_)" d="M34.2,10.321c2.357-0.001,4.268,1.911,4.269,4.268v19.92c-0.001,2.356-1.91,4.268-4.268,4.268	l-19.92-0.001c-2.357,0.001-4.269-1.91-4.268-4.268V14.589c-0.001-2.355,1.91-4.269,4.268-4.269L34.2,10.321z"/><linearGradient id="XMLID_7_" x1="5.614" x2="42.481" y1="23.564" y2="23.564" gradientUnits="userSpaceOnUse"><stop offset=".034" style="stop-color:#fff"/><stop offset=".113" style="stop-color:#ffffd8"/><stop offset=".291" style="stop-color:#ff7"/><stop offset=".494" style="stop-color:#ff0"/><stop offset=".541" style="stop-color:#ffff0e"/><stop offset=".627" style="stop-color:#ffff32"/><stop offset=".746" style="stop-color:#ffff6d"/><stop offset=".889" style="stop-color:#ffffbd"/><stop offset="1" style="stop-color:#fff"/></linearGradient><polygon fill="url(#XMLID_7_)" stroke="#243446" stroke-width="1.99" points="27.155 4.71 28.67 18.877 42.481 22.381 29.476 28.199 30.412 42.416 20.858 31.846 7.627 37.13 14.729 24.777 5.614 13.826 19.557 16.762"/><linearGradient id="XMLID_8_" x1="11.66" x2="31.51" y1="11.79" y2="38.189" gradientUnits="userSpaceOnUse"><stop offset="0" style="stop-color:#fff"/><stop offset=".483" style="stop-color:#ff6"/><stop offset="1" style="stop-color:#fff"/></linearGradient><polygon fill="url(#XMLID_8_)" points="26.897 5.888 28.321 19.204 41.304 22.497 29.079 27.967 29.96 41.33 20.979 31.395 8.542 36.361 15.217 24.75 6.649 14.457 19.755 17.217" enable-background="new"/></svg>