<svg xmlns="http://www.w3.org/2000/svg" xmlns:xlink="http://www.w3.org/1999/xlink" id="Layer_1" width="48" height="48" enable-background="new 0 0 48 48" overflow="visible" version="1.1" viewBox="0 0 48 48" xml:space="preserve"><polygon fill="none" stroke="#243446" stroke-linejoin="round" stroke-width="4.403" points="6.486 37.712 24.021 7.338 41.559 37.712"/><polygon fill="none" stroke="#FFF" stroke-linejoin="round" stroke-width="1.468" points="6.486 37.712 24.021 7.338 41.559 37.712"/><polygon fill="#C00" points="6.486 37.712 24.021 7.338 41.559 37.712"/><polygon fill="#C00" points="6.486 37.712 24.021 7.338 41.559 37.712"/><linearGradient id="XMLID_4_" x1="22.328" x2="10.77" y1="33.249" y2="15.729" gradientUnits="userSpaceOnUse"><stop offset="0" style="stop-color:#7b1e1e"/><stop offset="1" style="stop-color:#fff"/></linearGradient><polygon fill="url(#XMLID_4_)" points="6.486 37.712 24.021 7.338 41.559 37.712"/><g><path fill="#656565" d="M27.092,13.988l-0.59,14.035h-3.479l-0.59-14.035H27.092z M22.64,30.145h4.245v4.423H22.64V30.145z"/></g><g><linearGradient id="XMLID_5_" x1="26.977" x2="22.815" y1="25.931" y2="17.053" gradientUnits="userSpaceOnUse"><stop offset="0" style="stop-color:#656565"/><stop offset="1" style="stop-color:#fff"/></linearGradient><polygon fill="url(#XMLID_5_)" points="26.441 13.431 25.852 27.466 22.373 27.466 21.783 13.431"/><linearGradient id="XMLID_6_" x1="25.189" x2="23.515" y1="34.096" y2="30.524" gradientUnits="userSpaceOnUse"><stop offset="0" style="stop-color:#656565"/><stop offset="1" style="stop-color:#fff"/></linearGradient><rect width="4.245" height="4.423" x="21.99" y="29.588" fill="url(#XMLID_6_)"/></g></svg>